<?xml version="1.0" encoding="utf-8"?>
<svg width="126.157" height="113" viewBox="0 0 126.157 113" fill="none" xmlns="http://www.w3.org/2000/svg">
  <defs>
    <clipPath id="clip_path_1">
      <rect width="126.158" height="113" />
    </clipPath>
  </defs>
  <g clip-path="url(#clip_path_1)">
    <rect width="126.158" height="113" />
    <path id="Path" d="M67.598 62.8491C70.0207 67.3033 81.9326 82.1115 82.1181 82.3421C81.9082 82.1647 68.457 70.7806 63.3572 68.2357C60.2726 73.3667 57.8309 71.1865 56.1604 113C54.4901 71.1865 52.0484 73.3667 48.9638 68.2357C43.864 70.7806 30.4127 82.1647 30.203 82.3421C30.3884 82.1106 42.3004 67.3033 44.7229 62.8491C41.5102 60.6687 38.2966 58.8728 0 55.9229C38.6833 57.2057 45.1089 49.3814 45.1089 49.3814L29.3014 30.0138C29.3014 30.0138 42.4102 40.2757 49.3499 44.6364C55.9034 37.7095 56.1604 0 56.1604 0C56.1604 0 56.4175 37.7095 62.9719 44.6355C69.9123 40.275 83.0204 30.0131 83.0204 30.0131L67.2137 49.3806C67.2137 49.3806 73.6391 57.205 112.322 55.9222C74.0243 58.8721 70.8116 60.668 67.5989 62.8482L67.598 62.8491L67.598 62.8491Z" fill="#D69F9F" transform="translate(8.949 0)" />
    <path id="Path" d="M12.3254 9.28672L8.94872 8.56204L10.353 11.7113L7.70016 9.50377L7.47741 12.944L6.15636 9.75872L4.35762 12.7018L4.67046 9.26847L1.70797 11.04L3.58344 8.14566L0.135132 8.33902L3.14408 6.64665L0 5.21854L3.45235 5.11571L1.33336 2.39266L4.43855 3.90306L3.82994 0.509203L5.87643 3.28648L6.91753 0L7.43694 3.40825L9.88918 0.980505L8.76185 4.23873L12.0631 3.227L9.54748 5.58929L12.9426 6.22413L9.61539 7.14901L12.3254 9.28672L12.3254 9.28672Z" fill="#D69F9F" transform="translate(90.136 20.779)" />
    <path id="Path" d="M12.3254 9.28668L8.94855 8.56271L10.3528 11.7121L7.7 9.50443L7.47724 12.9446L6.1562 9.75938L4.35762 12.7018L4.67099 9.26913L1.70778 11.0399L3.58343 8.14545L0.134954 8.33969L3.14408 6.64663L0 5.21922L3.45217 5.11569L1.33319 2.39334L4.43838 3.90305L3.82976 0.509903L5.87626 3.28716L6.91737 0L7.43677 3.40807L9.88919 0.980499L8.76169 4.23942L12.0629 3.22698L9.54732 5.5891L12.9425 6.22481L9.61523 7.14968L12.3254 9.28668L12.3254 9.28668Z" fill="#D69F9F" transform="translate(30.788 79.423)" />
    <path id="Shape" d="M36.8889 59.5656C31.7372 59.5656 26.9226 59.1821 22.5186 58.4169C16.4164 57.3572 11.4028 55.6192 7.61647 53.251C3.64172 50.7639 1.19173 47.6861 0.334384 44.1013C-0.522959 40.5164 0.27032 36.6659 2.69131 32.6555C4.9979 28.8354 8.68432 25.0245 13.6499 21.3294C18.5941 17.6493 24.5628 14.2641 31.3902 11.2669C38.451 8.16698 46.1283 5.61974 54.2089 3.69523C62.2897 1.77073 70.2918 0.583176 77.9941 0.166092C85.4416 -0.236603 92.2988 0.0938015 98.375 1.14817C104.477 2.20694 109.491 3.9458 113.277 6.31406C117.252 8.80111 119.702 11.879 120.559 15.4637C121.417 19.0487 120.623 22.8991 118.202 26.9095C115.896 30.7296 112.209 34.5405 107.244 38.2357C102.299 41.9157 96.3309 45.301 89.5035 48.2981C82.4425 51.398 74.7654 53.9453 66.6846 55.8698C58.604 57.7943 50.6019 58.9819 42.8994 59.3989C40.8499 59.5102 38.8446 59.5649 36.8882 59.5649L36.8889 59.5656L36.8889 59.5656ZM83.9406 0.937262C74.7478 0.937262 64.6557 2.17728 54.4287 4.61345C38.5562 8.39385 24.2751 14.5997 14.2159 22.0861C9.34945 25.7081 5.74541 29.4278 3.50213 33.1428C1.21309 36.9339 0.457196 40.5469 1.25503 43.882C2.05289 47.2171 4.36252 50.1001 8.11988 52.4508C11.8017 54.7545 16.7009 56.449 22.6817 57.4874C27.0784 58.251 31.8799 58.6286 36.9545 58.6286C46.1473 58.6286 56.2394 57.3884 66.4664 54.9524C82.3387 51.1719 96.62 44.966 106.679 37.4797C111.546 33.8576 115.15 30.1381 117.393 26.423C119.682 22.6318 120.438 19.0188 119.64 15.6838C118.842 12.3487 116.532 9.46577 112.775 7.11488C109.093 4.81137 104.194 3.11672 98.2132 2.07832C93.8167 1.31487 89.0152 0.937262 83.9406 0.937262L83.9406 0.937262Z" fill="#D69F9F" fill-rule="evenodd" transform="translate(4.65 27.372)" />
    <path id="Shape" d="M19.9336 0.581675C25.7269 0.581675 32.3194 1.34671 39.5298 2.85484C47.004 4.41842 54.7491 6.70298 62.5499 9.64467C69.9533 12.437 76.944 15.6481 83.3267 19.1902C89.4838 22.6067 94.8171 26.1848 99.1793 29.8229C103.516 33.4405 106.666 36.9293 108.541 40.1921C110.428 43.474 110.922 46.3601 110.009 48.771C109.146 51.0494 107.052 52.8216 103.785 54.0374C100.537 55.2464 96.2701 55.86 91.1031 55.86C85.31 55.86 78.7159 55.0947 71.5055 53.5868C64.0304 52.023 56.2846 49.7385 48.4838 46.7963C41.0804 44.0039 34.0899 40.7929 27.707 37.2506C21.5499 33.8341 16.2168 30.256 11.8546 26.6178C7.51749 23.0004 4.36805 19.5115 2.49242 16.2487C0.605352 12.9668 0.111842 10.0809 1.02487 7.6698C1.88755 5.39137 3.98133 3.61917 7.24824 2.40336C10.4968 1.19458 14.7636 0.581675 19.9322 0.580975L19.9329 0.580975M19.9306 0C9.61126 0 2.3719 2.4688 0.480256 7.46432C-3.51737 18.0239 17.8818 35.8764 48.2779 47.3396C64.2936 53.3797 79.609 56.44 91.103 56.44C101.422 56.44 108.662 53.9712 110.553 48.9757C114.551 38.4161 93.1518 20.5635 62.7557 9.10036C46.7401 3.0603 31.4247 -0.000703812 19.9306 0L19.9306 0Z" fill="#FFC3C5" fill-rule="evenodd" transform="translate(7.538 28.855)" />
    <path id="Shape" d="M6.70008 3.2263L7.16383 5.75671C7.20731 5.99429 7.39343 6.18011 7.63141 6.22345L10.1668 6.68634L7.63141 7.14922C7.39343 7.19255 7.20731 7.3782 7.16383 7.61578L6.70008 10.1462L6.23632 7.61578C6.19284 7.3782 6.00674 7.19255 5.76875 7.14922L3.23333 6.68634L5.76875 6.22345C6.00674 6.18011 6.19284 5.99429 6.23632 5.75671L6.70008 3.2263L6.70008 3.2263ZM6.70009 0L5.66351 5.65249L0 6.68705L5.66351 7.7216L6.70009 13.3741L7.7367 7.7216L13.4002 6.68705L7.7367 5.65249L6.70009 0L6.70009 0Z" fill="#FFC3C5" fill-rule="evenodd" transform="translate(3.842 50.073)" />
    <path id="Shape" d="M6.70003 3.22612L7.16383 5.7567C7.2073 5.99428 7.39327 6.17992 7.63133 6.22326L10.1668 6.68615L7.63133 7.14902C7.39327 7.19237 7.2073 7.37819 7.16383 7.61577L6.70003 10.1462L6.23621 7.61577C6.19276 7.37819 6.0066 7.19237 5.76871 7.14902L3.23327 6.68615L5.76871 6.22326C6.0066 6.17992 6.19276 5.99428 6.23621 5.7567L6.70003 3.22612L6.70003 3.22612ZM6.70004 0L5.66351 5.65248L0 6.68703L5.66351 7.72157L6.70004 13.374L7.73656 7.72157L13.4001 6.68703L7.73656 5.65248L6.70004 0L6.70004 0Z" fill="#FFC3C5" fill-rule="evenodd" transform="translate(112.757 49.813)" />
    <path id="Shape" d="M91.1675 0.580973C96.3428 0.580973 100.615 1.193 103.864 2.39968C107.131 3.61302 109.222 5.38066 110.078 7.6547C110.982 10.0565 110.479 12.9318 108.584 16.2006C106.699 19.4506 103.539 22.9257 99.1925 26.5289C94.8212 30.1524 89.4787 33.7145 83.3141 37.1158C76.923 40.6421 69.9254 43.8386 62.5168 46.6165C54.7198 49.5405 46.9786 51.8107 39.5097 53.3635C32.3046 54.8625 25.7166 55.6223 19.928 55.6223C14.752 55.6223 10.4797 55.0103 7.22962 53.8036C3.96272 52.5901 1.87199 50.8225 1.0154 48.5486C0.111538 46.1468 0.614197 43.2715 2.50966 40.0025C4.39443 36.7527 7.55455 33.2775 11.9007 29.6744C16.2722 26.0507 21.6145 22.4888 27.7791 19.0874C34.1702 15.5612 41.1678 12.3646 48.5766 9.58676C56.3734 6.6635 64.1141 4.39262 71.5837 2.83957C78.7888 1.34074 85.3766 0.580973 91.1659 0.580973M91.1646 0C79.6813 0 64.3787 3.04135 48.3713 9.04316C17.9556 20.4486 -3.49097 38.2273 0.471573 48.7533C2.34873 53.7397 9.59038 56.204 19.928 56.204C31.4115 56.204 46.7139 53.1626 62.7213 47.1608C93.1386 35.7554 114.585 17.9766 110.623 7.45063C108.745 2.46424 101.504 0 91.166 0L91.1646 0L91.1646 0Z" fill="#FFC3C5" fill-rule="evenodd" transform="translate(7.743 29.037)" />
    <path id="Shape" d="M48.7015 14.0408C48.7732 15.0603 48.8533 16.1001 48.9432 17.1499C49.9715 29.1293 51.735 36.5152 54.1843 39.1035C54.298 39.223 54.4519 39.2854 54.6076 39.2854C54.7143 39.2854 54.8219 39.2565 54.9173 39.1963C58.6517 36.8502 64.4852 32.504 68.3625 29.5532L57.8341 42.4529C57.6593 42.667 57.66 42.9744 57.8355 43.1883C58.0193 43.4122 62.2404 48.231 83.6223 49.0722C62.6829 51.0387 60.6211 52.4378 58.2924 54.0182C58.0454 54.1857 57.9651 54.5131 58.1078 54.7757C59.4511 57.2452 64.0474 63.2539 67.3319 67.4463C63.467 64.3167 57.969 60.0315 55.2018 58.6506C55.1186 58.6088 55.0294 58.589 54.9416 58.589C54.7433 58.589 54.5511 58.6902 54.4421 58.8713C54.1209 59.4058 53.8021 59.8534 53.4939 60.2857C51.5322 63.0423 49.9234 65.3033 48.7 85.9543C47.4772 65.3033 45.8686 63.0423 43.9061 60.2857C43.5978 59.8527 43.279 59.4058 42.9579 58.8706C42.8496 58.6902 42.6566 58.5881 42.4583 58.5881C42.3705 58.5881 42.282 58.6079 42.1983 58.6499C39.4309 60.0308 33.9329 64.316 30.068 67.4456C33.3525 63.2541 37.9489 57.2452 39.2921 54.775C39.4348 54.5131 39.3554 54.185 39.1075 54.0176C36.7781 52.4371 34.717 51.0387 13.7778 49.0715C35.1625 48.231 39.3813 43.4115 39.5652 43.1876C39.7406 42.9737 39.7413 42.667 39.5659 42.4529L29.0376 29.5532C32.9147 32.504 38.7482 36.8502 42.4819 39.1963C42.5773 39.2565 42.6848 39.2854 42.7916 39.2854C42.9473 39.2854 43.1013 39.223 43.2149 39.1035C45.6642 36.5152 47.4277 29.1284 48.4558 17.1499C48.5459 16.1001 48.626 15.0603 48.6978 14.0408M48.6978 0C48.6978 0 48.475 32.6997 42.7916 38.7054C36.7742 34.9241 25.4075 26.0264 25.4075 26.0264L39.1151 42.8207C39.1151 42.8207 34.3563 48.6162 7.15164 48.6162C4.9221 48.6162 2.54076 48.5774 0 48.493C33.2084 51.0508 35.9947 52.6084 38.7811 54.4987C36.6804 58.3614 26.3512 71.2016 26.1902 71.4018C26.3717 71.2481 38.0358 61.3768 42.4583 59.1697C45.1333 63.6187 47.2507 61.7284 48.6992 97.9861C50.1485 61.7284 52.2652 63.6194 54.9402 59.1697C59.3626 61.3768 71.0261 71.2481 71.2084 71.4018C71.0473 71.2016 60.7188 58.3614 58.6174 54.4987C61.4038 52.6084 64.1893 51.0508 97.3984 48.493C94.8554 48.5774 92.4778 48.6162 90.2467 48.6162C63.0468 48.6162 58.284 42.8207 58.284 42.8207L71.9908 26.0264C71.9908 26.0264 60.6241 34.9248 54.6068 38.7054C48.9235 32.6997 48.7008 0 48.7008 0L48.6978 0L48.6978 0Z" fill="#FFC3C5" fill-rule="evenodd" transform="translate(11.506 8.008)" />
    <path id="Path" d="M37.3418 37.4315C36.2998 37.4864 35.7788 36.4875 35.7788 34.4352C35.7788 32.739 36.1076 30.6319 36.7659 28.1143C36.9306 27.4856 37.794 25.3372 39.3569 21.6701C40.7825 18.3321 41.4956 16.5537 41.4956 16.3344C41.4956 15.7598 41.2349 15.3494 40.7146 15.1035C39.9747 15.1035 39.2067 15.8291 38.4119 17.2793L35.3685 23.313C33.9146 26.1861 32.6263 28.444 31.5028 30.0853C28.898 33.8611 26.5944 35.7491 24.5937 35.7491C23.0583 35.7491 22.291 34.573 22.291 32.2191C22.291 29.8652 23.3458 26.4868 25.458 21.7524C27.8979 16.2797 29.2962 12.7633 29.6523 11.2043C29.9535 9.89116 30.1047 8.65939 30.1047 7.51062C30.1047 4.19994 28.7889 1.96943 26.1567 0.820652C24.9232 0.273201 23.5243 0 21.9622 0C19.0011 0 15.9303 0.876099 12.7503 2.62707C9.10355 4.62474 6.16997 6.99212 3.94958 9.72744C1.31576 13.0093 0 16.4715 0 20.1104C0 22.6005 0.658263 24.7213 1.97402 26.4723C3.42709 28.3877 5.35992 29.3453 7.77254 29.3453C9.00591 29.3453 10.295 29.0583 11.6382 28.4836C13.7213 27.6081 15.4901 26.1991 16.9432 24.2563C18.4787 22.2039 19.246 20.0974 19.246 17.9354C19.246 15.418 18.1903 14.1595 16.079 14.1595C15.3658 14.1595 14.5298 14.3513 13.5703 14.7343C13.3239 14.8165 13.0905 14.9672 12.8708 15.1858C12.5962 15.4316 12.61 15.555 12.912 15.555C13.1858 15.555 13.5909 15.5001 14.1256 15.3906C14.6603 15.2816 15.0645 15.226 15.3391 15.226C17.1484 15.226 18.053 16.2112 18.053 18.1814C18.053 19.8507 17.4085 21.6701 16.1202 23.6404C14.1462 26.6779 11.5825 28.1966 8.43004 28.1966C6.29125 28.1966 4.60554 27.3622 3.3714 25.6927C2.2471 24.1884 1.68494 22.3273 1.68494 20.1104C1.68494 16.8545 2.80849 13.7074 5.05711 10.6699C7.00366 8.01613 9.53985 5.78562 12.6656 3.9799C15.9554 2.06453 19.1079 1.10684 22.1246 1.10684C24.0713 1.10684 25.4969 1.46303 26.4014 2.17419C27.4151 2.96817 27.9232 4.30873 27.9232 6.19674C27.9232 7.59203 27.6897 9.20667 27.2236 11.0399C26.9217 12.2168 25.5234 15.6784 23.0293 21.4243C20.9453 26.2128 19.9035 29.7152 19.9035 31.9314C19.9035 33.2728 20.2047 34.3803 20.8081 35.2559C21.5205 36.2674 22.5213 36.7745 23.8104 36.7745C26.4693 36.7745 29.2388 34.9278 32.1176 31.2333C33.0496 30.057 33.8857 28.8261 34.6263 27.5396C34.2693 29.4275 34.0916 31.1244 34.0916 32.6294C34.0916 36.1039 35.0824 38.02 37.0655 38.3755C37.3097 38.4302 37.6018 38.4022 37.9412 38.2932C38.2806 38.1837 38.4508 38.0063 38.4508 37.7596C38.4508 37.4855 38.0808 37.3759 37.3402 37.4315L37.3418 37.4315L37.3418 37.4315Z" fill="#000000" transform="translate(0 32.215)" />
    <path id="Path" d="M1.45301 3.36635C1.9191 3.36635 2.34402 3.20193 2.72759 2.87381C3.11134 2.54569 3.34465 2.14913 3.427 1.68326C3.50952 1.2181 3.40641 0.821541 3.11891 0.492538C2.83141 0.164417 2.45382 0 1.98772 0C1.52163 0 1.08914 0.164417 0.692543 0.492538C0.295246 0.820663 0.0686226 1.2181 0.0137253 1.68326C-0.0411682 2.14913 0.0686226 2.54499 0.342403 2.87381C0.61636 3.20193 0.986206 3.36635 1.45301 3.36635L1.45301 3.36635Z" fill="#000000" transform="translate(59.699 47.768)" />
    <path id="Path" d="M24.0171 12.9303C24.0171 14.49 24.7844 15.2696 26.3199 15.2696C28.4586 15.2696 30.4738 13.4639 32.3655 9.85155C33.2976 8.0732 34.3806 5.25434 35.6141 1.39618C35.7506 0.958397 35.8201 0.71257 35.8201 0.656944C35.8201 0.219154 35.5729 0 35.0793 0C34.5858 0 34.0787 0.245827 33.5577 0.738361C32.5157 1.69693 31.9947 2.9545 31.9947 4.51439C31.9947 5.49946 32.1724 6.37556 32.5294 7.14148C30.7201 11.6566 28.9926 13.9138 27.348 13.9138C26.6074 13.9138 26.2374 13.5172 26.2374 12.7231C26.2374 11.738 26.7165 10.0146 27.6769 7.55189C28.4174 5.6365 28.814 3.98063 28.8698 2.58532C28.8964 1.43567 28.6638 0.861015 28.1702 0.861015C28.1153 0.861015 27.8546 0.875404 27.3892 0.902069L25.374 1.23019C25.8127 1.33986 26.0322 1.88714 26.0322 2.8722C26.0322 3.70655 25.6364 5.11185 24.847 7.08743C24.8447 7.09199 24.8425 7.09497 24.8402 7.09954C22.5092 11.8606 20.6045 14.1871 19.124 14.0775C18.4107 14.0226 18.0546 13.5849 18.0546 12.7643C18.0546 12.4088 18.1369 11.9847 18.3009 11.4922C18.4375 11.0819 18.5884 10.6852 18.7533 10.3014L22.0431 2.62638C22.2345 2.18859 22.3306 1.90171 22.3306 1.76466C22.3306 1.35424 21.9461 1.16317 21.1788 1.18984L18.9173 1.2309C19.246 1.69693 19.4108 2.10717 19.4108 2.46267C19.4108 2.62708 19.3834 2.77781 19.3283 2.91414L17.645 7.21921C15.378 11.8187 13.5268 14.1192 12.0905 14.1192C11.597 14.1192 11.3499 13.7646 11.3499 13.055C11.3499 12.7278 11.3767 12.4011 11.4323 12.0729C11.6237 10.983 12.3231 9.23724 13.5298 6.83616C13.9959 5.909 14.9418 4.13592 16.3674 1.51796C16.2576 1.49129 16.1211 1.4769 15.9562 1.4769C15.1882 1.4769 13.9959 1.92837 12.378 2.83115C9.88321 4.22663 7.53918 6.30643 5.34541 9.06985C7.59338 4.50071 9.25225 1.92837 10.3217 1.35355C10.1295 1.40829 9.82814 1.3946 9.41712 1.31249C9.00592 1.23019 8.73143 1.18914 8.59489 1.18914C7.90903 1.13421 7.30569 1.3946 6.78558 1.96873C6.51092 2.29668 6.14107 2.89888 5.67497 3.77445C3.42631 8.09846 1.53553 11.9291 0 15.2673C0.192314 15.1576 0.727032 15.0892 1.60415 15.0618C2.28913 15.0343 2.74133 14.8158 2.96109 14.4047C4.7704 10.8482 6.67579 8.13882 8.67723 6.27818C9.6909 5.32048 10.5414 4.73285 11.2271 4.51352C11.7472 4.34911 12.0082 4.48614 12.0082 4.92306C12.0082 5.2231 11.8709 5.5907 11.597 6.02691C9.84187 8.83455 8.96474 10.9745 8.96474 12.446C8.96474 14.2182 9.81441 15.1036 11.5146 15.1036C12.8853 15.1036 14.2422 14.1368 15.5863 12.204C15.7831 11.9108 16.0202 11.5195 16.2979 11.03C16.2354 11.372 16.2025 11.7045 16.2025 12.0258C16.2025 13.9961 17.1073 14.9811 18.9166 14.9811C20.7257 14.9811 22.8751 12.6676 25.1009 8.04284C25.1513 7.98652 25.2009 7.91949 25.2489 7.83878C24.4267 10.083 24.0155 11.7792 24.0155 12.9287L24.0171 12.9303L24.0171 12.9303Z" fill="#000000" transform="translate(37.3 52.406)" />
    <path id="Shape" d="M43.0569 10.1789C42.7815 10.1789 42.561 10.3684 42.3954 10.7469C40.3581 15.3761 38.0867 17.6896 35.581 17.6896C34.2865 17.6896 33.6397 16.8058 33.6397 15.0381C33.6397 13.9776 33.8183 12.998 34.1767 12.1005C34.8373 12.1005 35.7123 11.9032 36.8007 11.5088C37.8892 11.1145 38.7084 10.7125 39.2598 10.3046C41.243 8.80872 42.2346 7.31271 42.2346 5.81686C42.2346 4.51122 41.4664 3.85814 39.9318 3.85814C38.0668 3.85814 36.2575 4.90865 34.5031 7.00985C33.1882 8.58711 32.2828 10.16 31.7869 11.7265C30.546 14.072 29.7382 15.4447 29.363 15.8428C28.0473 17.2656 26.813 17.8952 25.6621 17.7308L25.3746 17.6896C27.2386 16.4313 28.212 14.9125 28.2943 13.1334C28.321 12.3675 28.1571 11.5325 27.8008 10.6295C27.4721 9.83643 27.1425 9.05613 26.8139 8.29023C26.4568 7.35991 26.2791 6.52557 26.2791 5.78633C26.2791 4.4184 26.7452 3.51545 27.6772 3.07785C27.9785 2.94151 28.2943 2.91343 28.6232 2.99555C29.0342 3.15996 29.2814 3.24225 29.3637 3.24225C29.5552 3.24225 29.6512 3.15996 29.6512 2.99555C29.6512 2.66743 29.3768 2.43529 28.829 2.29755C28.4178 2.18858 28.0198 2.16121 27.6361 2.21526C26.5117 2.37967 25.1685 3.89464 23.6057 6.75999C22.6454 8.78048 21.6729 10.8001 20.6858 12.8197C20.1648 12.8464 19.7538 13.1745 19.4524 13.8027C19.2053 14.2936 19.0825 14.8265 19.0825 15.399C19.0825 15.4454 19.0839 15.4912 19.0855 15.5368C18.1801 16.7943 17.425 17.4171 16.8208 17.4027C16.2998 17.376 16.0398 17.0333 16.0398 16.3764C16.0398 15.2552 17.0818 12.6279 19.1656 8.4957C19.7956 7.23743 20.1115 6.30711 20.1115 5.70491C20.1115 5.5405 20.084 5.41803 20.0291 5.33574C18.0001 5.52752 16.1077 5.58156 14.3542 5.50015C15.917 4.43279 16.698 3.27033 16.698 2.01119C16.698 1.51865 16.5676 1.06122 16.3076 0.636417C16.0466 0.212311 15.6836 0 15.2176 0C14.6142 0 14.2444 0.424801 14.1069 1.27213C13.7783 3.10592 13.0514 5.48646 11.9271 8.41358C11.0026 10.7978 10.0437 12.8099 9.05132 14.4505C7.55872 16.6094 5.95685 17.6896 4.24519 17.6896C2.95088 17.6896 2.30408 16.8058 2.30408 15.0381C2.30408 13.9776 2.4825 12.998 2.84109 12.1005C3.50162 12.1005 4.37645 11.9032 5.46488 11.5088C6.55332 11.1145 7.37256 10.7125 7.924 10.3046C9.90715 8.80872 10.8988 7.31271 10.8988 5.81686C10.8988 4.51122 10.1308 3.85814 8.59595 3.85814C6.73103 3.85814 4.9219 4.90865 3.16748 7.00985C1.0286 9.57516 -0.0269318 12.127 0.000518799 14.6637C0.0272675 15.81 0.404678 16.7517 1.13171 17.488C1.85787 18.2247 2.79745 18.5932 3.94853 18.5932C5.92254 18.5932 7.60904 17.695 9.00715 15.8975C9.18645 15.6647 9.38017 15.3822 9.58691 15.0502C10.744 13.3359 11.9072 10.9196 13.078 7.79769L13.5715 6.48451C15.7644 6.53925 16.8613 6.99143 16.8613 7.83875C16.8613 8.00316 16.8201 8.19512 16.7378 8.41358C16.518 8.90611 16.0795 9.71378 15.422 10.8352C14.8461 11.8476 14.4349 12.6553 14.1886 13.2568C13.8316 14.1871 13.6539 15.0085 13.6539 15.7194C13.6539 16.4861 13.8599 17.1355 14.2709 17.669C14.6821 18.2028 15.258 18.4692 15.9986 18.4692C16.9567 18.4692 18.0184 17.7436 19.1825 16.2965C19.3296 16.9056 19.6392 17.3981 20.1106 17.7734C20.7956 18.32 21.6736 18.5925 22.743 18.5925C23.2915 18.5925 23.8535 18.4692 24.4293 18.2233C24.9229 18.3604 25.389 18.4288 25.8276 18.4288C27.8282 18.4288 29.5422 17.1841 30.9679 14.694C31.1006 14.4664 31.2287 14.2403 31.3553 14.015C31.3416 14.2311 31.3355 14.4473 31.3384 14.6637C31.3652 15.81 31.7428 16.7517 32.4696 17.488C33.1958 18.2247 34.1356 18.5932 35.2866 18.5932C37.2606 18.5932 38.947 17.695 40.3453 15.8975C41.0577 14.9711 41.9904 13.2698 43.1415 10.791C43.2238 10.6015 43.265 10.4788 43.265 10.4234C43.265 10.2604 43.1964 10.1782 43.0591 10.1782L43.0569 10.1789L43.0569 10.1789ZM36.9706 7.59294C38.5336 5.70493 39.6983 4.76092 40.4665 4.76092C40.9051 4.76092 41.1247 5.06237 41.1247 5.66386C41.1247 7.05935 40.3773 8.37254 38.8838 9.60413C37.3887 10.8359 35.9288 11.4511 34.504 11.4511C35.3262 9.89119 36.1493 8.60538 36.9715 7.59294L36.9706 7.59294L36.9706 7.59294ZM5.63416 7.59294C7.19714 5.70493 8.36194 4.76092 9.12997 4.76092C9.56861 4.76092 9.7882 5.06237 9.7882 5.66386C9.7882 7.05935 9.04076 8.37254 7.54728 9.60413C6.05222 10.8359 4.59234 11.4511 3.16748 11.4511C3.98971 9.89119 4.81281 8.60538 5.63503 7.59294L5.63416 7.59294L5.63416 7.59294ZM22.4539 17.8952C21.4119 17.8952 20.8909 17.3683 20.8909 16.3148C20.8909 15.7202 21.1381 15.1797 21.6317 14.6933C21.714 16.0986 22.2616 17.1118 23.2768 17.7322C23.0024 17.8403 22.7284 17.8943 22.4546 17.8943L22.4539 17.8952L22.4539 17.8952ZM23.9756 17.4027C22.7421 16.8012 22.1663 15.7477 22.2488 14.2418C22.3037 13.3938 22.0153 12.956 21.3852 12.9287C21.4165 12.8678 21.4492 12.8046 21.4814 12.7421C21.7865 12.1878 22.0969 11.5934 22.4135 10.9585C22.4684 10.8489 22.5095 10.7529 22.537 10.6708C23.2929 9.16789 24.1693 7.39043 25.1685 5.33572L25.1685 6.15638C25.1685 6.86824 25.292 8.0307 25.5385 9.64534C25.73 11.1229 25.8123 12.2861 25.7849 13.1341C25.6751 15.1318 25.0718 16.5554 23.9756 17.4027L23.9756 17.4027Z" fill="#000000" fill-rule="evenodd" transform="translate(71.885 48.919)" />
    <path id="Path" d="M6.88835 0C6.82359 0 6.75427 0.00157928 6.68019 0.00456238L6.46888 0.0136871C6.40096 0.0168457 6.34237 0.0198288 6.29275 0.0228119C6.24384 0.0259705 6.21339 0.0273743 6.20196 0.0273743C6.15005 0.0273743 6.03638 0.0228119 5.86413 0.0145645C5.6917 0.00614166 5.51469 0.00157928 5.33926 0.00157928C5.28507 0.00157928 5.12038 0.00157928 5.12038 0.0973892C5.12038 0.133179 5.14167 0.175819 5.24231 0.175819C5.28894 0.175819 5.34314 0.177399 5.40401 0.180382C5.46366 0.18354 5.51856 0.193367 5.56589 0.208633C5.60706 0.229156 5.63363 0.255127 5.64595 0.287064C5.65968 0.321983 5.66653 0.356369 5.66653 0.387428C5.66653 0.426384 5.65968 0.474281 5.64507 0.530609C5.63064 0.588509 5.61164 0.649399 5.58876 0.713264C5.55357 0.818367 5.49639 0.985062 5.41704 1.21352C5.33926 1.43653 5.24319 1.70061 5.13111 1.99907C5.01815 2.29824 4.89534 2.61723 4.76566 2.94763C4.6337 3.28418 4.50331 3.61528 4.37434 3.94041C4.24554 4.26538 4.12185 4.57297 4.0052 4.8623C3.89998 5.12182 3.8076 5.34483 3.73141 5.5275L2.0648 1.09087C1.99987 0.921188 1.94427 0.771873 1.89764 0.643257C1.85189 0.518501 1.82903 0.426384 1.82903 0.370758C1.82903 0.344795 1.83589 0.317421 1.8489 0.289345C1.86104 0.262672 1.88779 0.238983 1.92826 0.21846C1.96627 0.202492 2.01817 0.191086 2.0831 0.184944C2.15013 0.178978 2.20732 0.176697 2.25236 0.176697C2.3516 0.176697 2.36603 0.121773 2.36603 0.0898438C2.36603 0.0296555 2.28509 0.00298309 2.10281 0.00298309C1.93283 0.00298309 1.76339 0.00754547 1.60028 0.0159683C1.437 0.0243912 1.3309 0.0289536 1.28445 0.0289536C1.25542 0.0289536 1.2058 0.0273743 1.13577 0.0243912C1.06557 0.0214081 0.983223 0.0182495 0.889263 0.0152664C0.795479 0.0122833 0.692547 0.00912476 0.581169 0.00614166C0.469795 0.00298309 0.360001 0.00157928 0.25478 0.00157928C0.136539 0.00157928 0 0.0114059 0 0.0882645C0 0.143883 0.0350151 0.175117 0.0960732 0.175117C0.125103 0.175117 0.171555 0.176697 0.235603 0.17968C0.298241 0.182663 0.361408 0.192665 0.42334 0.209335C0.497948 0.232147 0.565159 0.257408 0.622345 0.283203C0.677238 0.307594 0.727562 0.344086 0.77261 0.391289C0.81765 0.439194 0.862694 0.501656 0.905277 0.575523C0.948029 0.650101 0.993778 0.749062 1.0404 0.870834L3.19599 6.25462C3.27905 6.46851 3.33851 6.61012 3.3774 6.68697C3.42016 6.77224 3.47347 6.81488 3.53681 6.81488C3.58942 6.81488 3.63763 6.7654 3.68338 6.66345C3.72455 6.57274 3.8062 6.39535 3.92971 6.13197C4.02966 5.9158 4.17763 5.57557 4.36977 5.12112C4.56349 4.66438 4.79539 4.11395 5.0646 3.46982C5.17598 3.2003 5.28595 2.93693 5.39487 2.6797C5.50325 2.42159 5.60319 2.18261 5.69011 1.96784C5.78161 1.74254 5.85638 1.56216 5.91903 1.41512C5.98307 1.263 6.02811 1.15334 6.05099 1.08946C6.10888 0.944702 6.16237 0.820648 6.20882 0.721687C6.25527 0.622726 6.29803 0.542717 6.33463 0.482704C6.37122 0.423225 6.40553 0.377602 6.43685 0.346367C6.46817 0.316017 6.4972 0.291626 6.52536 0.27478C6.60401 0.224594 6.68407 0.194946 6.76483 0.186523C6.84875 0.178101 6.90524 0.173538 6.93339 0.173538C7.04177 0.173538 7.06465 0.126335 7.06465 0.0868607C7.06465 0 6.93268 0 6.88923 0L6.88835 0L6.88835 0Z" fill="#000000" transform="translate(48.8 70.047)" />
    <path id="Shape" d="M5.97849 0.889091C5.66969 0.604485 5.29808 0.382164 4.87404 0.229858C4.4507 0.0775604 3.98619 0 3.49265 0C3.0876 0 2.71476 0.0517654 2.3852 0.154587C2.05564 0.257233 1.75741 0.398834 1.49805 0.574654C1.23958 0.750648 1.01366 0.957695 0.828381 1.19054C0.643105 1.42286 0.486683 1.66939 0.363163 1.92451C0.239468 2.18018 0.147274 2.44372 0.088501 2.70709C0.0297356 2.97118 0 3.22402 0 3.45914C0 3.85815 0.0656281 4.267 0.194599 4.67425C0.324276 5.08221 0.529438 5.45911 0.80621 5.79408C1.08316 6.12904 1.44245 6.4061 1.87494 6.61771C2.30743 6.82933 2.83371 6.93671 3.43933 6.93671C3.96789 6.93671 4.45686 6.84003 4.89234 6.64895C5.32712 6.45856 5.70313 6.19589 6.00981 5.87023C6.31561 5.54439 6.55597 5.15678 6.72382 4.71987C6.8915 4.28296 6.97631 3.81166 6.97631 3.31842C6.97631 2.82501 6.88693 2.34248 6.71009 1.93364C6.53309 1.52551 6.28746 1.17387 5.97779 0.88839L5.97849 0.889091L5.97849 0.889091ZM3.67723 6.55156C3.28381 6.55156 2.91449 6.47225 2.57894 6.31696C2.2434 6.16096 1.94587 5.93567 1.69408 5.64703C1.44247 5.35786 1.2426 5.00377 1.10078 4.59265C0.958782 4.18171 0.886288 3.71796 0.886288 3.21331C0.886288 2.73833 0.951218 2.31721 1.07861 1.96172C1.20599 1.60709 1.38441 1.30547 1.61016 1.06578C1.8352 0.82679 2.10599 0.645538 2.41496 0.527451C2.72463 0.409538 3.06633 0.34935 3.4309 0.34935C3.7719 0.34935 4.10603 0.419365 4.42398 0.557983C4.7421 0.696594 5.02591 0.902771 5.26925 1.17088C5.51258 1.43952 5.71001 1.77835 5.85798 2.17719C6.00596 2.5769 6.08073 3.04346 6.08073 3.56495C6.08073 4.1961 5.99153 4.7146 5.81452 5.10502C5.63752 5.4949 5.42092 5.80091 5.17001 6.01411C4.9191 6.22712 4.65447 6.37189 4.38368 6.4433C4.11131 6.51576 3.87413 6.55226 3.67723 6.55226L3.67723 6.55156L3.67723 6.55156Z" fill="#000000" fill-rule="evenodd" transform="translate(56.076 69.924)" />
    <path id="Path" d="M5.93797 5.17137C5.85563 5.17137 5.83275 5.28631 5.82501 5.32509C5.81358 5.4058 5.78014 5.52371 5.72525 5.67602C5.67106 5.82745 5.59698 5.95238 5.50619 6.04906C5.33464 6.22646 5.12103 6.34367 4.87242 6.39771C4.62064 6.45246 4.32468 6.48071 3.99372 6.48071C3.52991 6.48071 3.09972 6.39158 2.71526 6.21506C2.33011 6.03836 1.99528 5.80166 1.71991 5.50932C1.44456 5.217 1.22726 4.87589 1.07382 4.49372C0.92057 4.11243 0.842804 3.70745 0.842804 3.29089C0.842804 2.84415 0.894714 2.42532 0.996056 2.0463C1.09669 1.6694 1.3096 1.32303 1.62772 1.01701C1.70232 0.942436 1.79539 0.866989 1.90536 0.79171C2.01516 0.717133 2.15082 0.648529 2.30952 0.588348C2.46823 0.528336 2.65738 0.477974 2.87239 0.440781C3.08688 0.403404 3.34306 0.384453 3.63373 0.384453C4.01659 0.384453 4.36902 0.433937 4.68169 0.532898C4.99364 0.630981 5.22713 0.74749 5.37652 0.879272C5.49018 0.975952 5.57956 1.10527 5.64202 1.26442C5.70537 1.42515 5.73739 1.59026 5.73739 1.75538C5.73739 1.80732 5.73739 1.96559 5.83346 1.96559C5.92953 1.96559 5.93568 1.80872 5.93797 1.75538C5.93797 1.72046 5.93956 1.66799 5.94255 1.59869C5.94554 1.52867 5.94712 1.44796 5.94712 1.3604C5.94712 1.27284 5.94871 1.18142 5.9517 1.09316C5.95469 1.00333 5.95927 0.922615 5.96471 0.8526C5.97615 0.696602 5.98671 0.583084 5.99516 0.516052C6.0043 0.448326 6.00888 0.394981 6.00888 0.35936C6.00888 0.323563 5.99902 0.295311 5.97914 0.275482C5.96014 0.256531 5.92583 0.244255 5.87093 0.237411C5.73123 0.226006 5.58783 0.208633 5.44601 0.184944C5.30191 0.16143 5.14549 0.13546 4.97623 0.105812C4.75876 0.0647507 4.5323 0.036499 4.3041 0.02211C4.07449 0.00754547 3.8702 0 3.69549 0C3.35538 0 3.04482 0.0250931 2.77104 0.0752792C2.49797 0.125633 2.24935 0.191788 2.03188 0.274078C1.8137 0.356201 1.61628 0.458321 1.44543 0.575531C1.27459 0.692749 1.12204 0.818382 0.993065 0.946999C0.798462 1.14107 0.634483 1.35128 0.504807 1.57131C0.37513 1.79117 0.273079 2.01121 0.199005 2.22598C0.125801 2.43987 0.0731964 2.64851 0.0441666 2.84486C0.0144272 3.0405 0 3.21491 0 3.36249C0 3.5741 0.0160141 3.79501 0.0487366 4.02031C0.0807648 4.24561 0.137238 4.47319 0.2173 4.69708C0.296654 4.9201 0.407326 5.14382 0.545273 5.36088C0.683388 5.57776 0.861099 5.78639 1.07312 5.98063C1.42625 6.29717 1.83886 6.53861 2.30038 6.69688C2.76118 6.85533 3.33092 6.93517 3.99372 6.93517C4.13483 6.93517 4.2821 6.93061 4.43079 6.92219C4.57876 6.91394 4.72515 6.90166 4.86784 6.88727C5.00966 6.8727 5.14391 6.85148 5.26672 6.82551C5.39112 6.79901 5.49863 6.76778 5.58783 6.73198C5.67475 6.69461 5.72824 6.66197 5.75182 6.63214C5.77399 6.60319 5.79985 6.54774 5.83118 6.46176C5.85492 6.38474 5.8785 6.28506 5.90208 6.1647C5.92583 6.04379 5.94642 5.92343 5.96384 5.80779C5.98143 5.69058 5.99586 5.58617 6.00818 5.49564C6.02419 5.37158 6.02577 5.34176 6.02577 5.32965C6.02577 5.29157 6.02119 5.25806 6.01117 5.2291C5.99445 5.17962 5.95856 5.17207 5.93867 5.17207L5.93797 5.17137L5.93797 5.17137Z" fill="#000000" transform="translate(64.13 69.925)" />
    <path id="Shape" d="M6.64283 6.64001C6.5962 6.64001 6.54202 6.63702 6.48254 6.63159C6.42394 6.62633 6.36201 6.61194 6.29726 6.58825C6.25222 6.57684 6.2026 6.55701 6.14929 6.52894C6.09668 6.50156 6.0402 6.45348 5.98073 6.38506C5.92037 6.31574 5.85334 6.21976 5.78085 6.09869C5.70836 5.9778 5.63358 5.81934 5.5581 5.62827L5.22784 4.79392C5.09517 4.45895 4.95634 4.10275 4.81453 3.73586C4.67025 3.36422 4.52544 2.98819 4.37888 2.60673C4.22791 2.21544 4.09753 1.87222 3.97842 1.55779C3.85789 1.23878 3.75584 0.969269 3.67033 0.749229C3.58481 0.529198 3.53079 0.390755 3.50792 0.332146C3.45443 0.195107 3.41625 0.109123 3.39109 0.0687714C3.33391 -0.0233459 3.2447 -0.0242233 3.1891 0.0740356C3.16464 0.115967 3.12646 0.209496 3.07315 0.358818L1.07541 5.81251C0.994644 6.03185 0.902275 6.21748 0.800926 6.36452C0.702393 6.50683 0.553017 6.59351 0.355415 6.62177C0.321106 6.6279 0.277649 6.63159 0.226448 6.63474C0.174545 6.63773 0.134247 6.63931 0.104515 6.63931C0.0137253 6.63931 0 6.68791 0 6.71774C0 6.78161 0.064743 6.81355 0.193016 6.81355C0.298233 6.81355 0.405037 6.81214 0.510254 6.80898C0.615471 6.806 0.715408 6.80302 0.809196 6.79986C0.902977 6.79688 0.98391 6.79389 1.05183 6.79073C1.11887 6.78775 1.16391 6.78617 1.18678 6.78617C1.20966 6.78617 1.24942 6.78775 1.30432 6.79073C1.35992 6.79389 1.42027 6.79688 1.48502 6.79986L1.68719 6.80898C1.75809 6.81214 1.81985 6.81355 1.87334 6.81355C2.00372 6.81355 2.03117 6.76178 2.03117 6.71774C2.03117 6.68879 2.01675 6.63931 1.9175 6.63931L1.82988 6.63931C1.75809 6.63931 1.68719 6.61948 1.61769 6.58141C1.55293 6.54491 1.52091 6.48928 1.52091 6.41014C1.52091 6.24942 1.56209 6.05465 1.64285 5.83005L2.1707 4.27629C2.189 4.22839 2.21574 4.22225 2.23474 4.22225L4.12639 4.22225C4.15155 4.22225 4.16985 4.23436 4.18216 4.25874L5.00051 6.41997C5.02725 6.48314 5.03253 6.53122 5.01881 6.56158C5.00438 6.59351 4.98537 6.61422 4.96479 6.62247C4.89828 6.64159 4.88456 6.67966 4.88456 6.70862C4.88456 6.73371 4.89687 6.77705 4.97922 6.78231C5.02567 6.78547 5.09059 6.79003 5.17365 6.7953C5.32619 6.80144 5.47733 6.8053 5.62759 6.80828C5.77698 6.81126 5.9151 6.81284 6.04178 6.81284L6.55661 6.81284C6.60535 6.81284 6.64881 6.80828 6.68629 6.79916C6.74875 6.78319 6.75878 6.74126 6.75878 6.71687C6.75878 6.68791 6.74418 6.63844 6.64512 6.63844L6.64283 6.64001L6.64283 6.64001ZM4.02417 3.85375C4.02417 3.85375 4.02188 3.85603 4.01132 3.85603L2.331 3.85603C2.32555 3.85603 2.32256 3.85603 2.32185 3.85603C2.32185 3.85603 2.32185 3.84621 2.32941 3.82867L3.10359 1.45723C3.12646 1.38652 3.14248 1.3788 3.14248 1.3781C3.14318 1.3781 3.16078 1.38564 3.18752 1.45723L4.02276 3.82709C4.02804 3.84463 4.02575 3.85217 4.02504 3.85375L4.02417 3.85375L4.02417 3.85375Z" fill="#000000" fill-rule="evenodd" transform="translate(70.412 69.923)" />
    <path id="Path" d="M4.15171 5.41797C4.09593 5.41797 4.06092 5.46358 4.0472 5.55413C4.03576 5.63326 4.00972 5.7224 3.96925 5.82066C3.92966 5.91734 3.88004 6.00103 3.82356 6.06876C3.72292 6.19212 3.58181 6.26598 3.4048 6.28809C3.22252 6.3109 3.01208 6.32301 2.77948 6.32301C2.61092 6.32301 2.46435 6.31844 2.34541 6.31002C2.22647 6.30178 2.12653 6.28949 2.04876 6.27511C1.9724 6.26142 1.90993 6.24159 1.8626 6.2165C1.81527 6.19141 1.7741 6.16246 1.74049 6.12807C1.6636 6.05736 1.61311 5.86786 1.59023 5.56554C1.56666 5.25724 1.55522 4.77612 1.55522 4.13586L1.55522 1.21578C1.55522 1.08471 1.5568 0.978912 1.55979 0.900475C1.56278 0.82222 1.56736 0.747475 1.57281 0.677467C1.58425 0.5299 1.61082 0.416374 1.65357 0.341103C1.69334 0.269508 1.7748 0.222313 1.89621 0.200203C1.94724 0.188797 2.00072 0.181953 2.05474 0.17897C2.10982 0.175812 2.1517 0.174408 2.18072 0.174408C2.26764 0.174408 2.27679 0.119492 2.27679 0.0959778C2.27679 0.0524597 2.24776 0 2.11052 0C2.04559 0 1.96184 0.00157166 1.85873 0.00455475L1.55522 0.0136795C1.45528 0.0166626 1.36765 0.0198212 1.2913 0.0228043C1.21581 0.0257874 1.17147 0.0273666 1.16003 0.0273666C1.1486 0.0273666 1.10901 0.0257874 1.04268 0.0228043C0.974762 0.0198212 0.89312 0.0166626 0.796349 0.0136795C0.699394 0.0106964 0.595589 0.00754547 0.483505 0.00455475C0.372131 0.00157166 0.266212 0 0.166267 0C0.0555954 0 0 0.031929 0 0.0959778C0 0.119492 0.00914764 0.174408 0.0960693 0.174408C0.136536 0.174408 0.187561 0.175812 0.248619 0.17897C0.307381 0.181953 0.353836 0.188797 0.389725 0.200203C0.528549 0.228447 0.620926 0.277054 0.663506 0.346367C0.70784 0.418655 0.735992 0.5299 0.747429 0.677467C0.752892 0.746773 0.757286 0.82222 0.760452 0.900475C0.763443 0.978912 0.76503 1.08471 0.76503 1.21578L0.76503 4.11848C0.76503 4.53784 0.763443 4.91772 0.760452 5.24654C0.757286 5.57466 0.744438 5.83575 0.720688 6.02087C0.70327 6.14649 0.678818 6.25458 0.647491 6.34055C0.61776 6.42039 0.565147 6.46689 0.48439 6.48286C0.444618 6.49426 0.401169 6.50269 0.356117 6.50882C0.311073 6.51479 0.267616 6.51707 0.227325 6.51707C0.140228 6.51707 0.131081 6.57199 0.131081 6.5955C0.131081 6.65955 0.186859 6.69148 0.297356 6.69148C0.362282 6.69148 0.440048 6.6899 0.531548 6.68692C0.62233 6.68394 0.71312 6.67937 0.799339 6.67393C0.886963 6.67393 0.966316 6.67253 1.03353 6.66937C1.10056 6.66639 1.14262 6.66481 1.16003 6.66481C1.2913 6.66481 1.42783 6.66639 1.56437 6.66937C1.70548 6.67253 1.87105 6.68008 2.05703 6.69148C2.24477 6.69762 2.45608 6.70289 2.69097 6.70903C2.93044 6.71517 3.20879 6.71815 3.51846 6.71815C3.63441 6.71815 3.72838 6.71517 3.7977 6.70903C3.86949 6.70289 3.9228 6.6899 3.96098 6.67095C3.99899 6.65182 4.0303 6.62376 4.0472 6.58954C4.06232 6.5583 4.07922 6.51637 4.09752 6.46162C4.11494 6.39687 4.13183 6.31774 4.14626 6.22633C4.16069 6.13579 4.17529 6.04665 4.1906 5.9584C4.20502 5.87014 4.21576 5.79012 4.22174 5.71941C4.2279 5.64397 4.23089 5.59992 4.23089 5.57694C4.23089 5.53816 4.23089 5.41937 4.15241 5.41937L4.15171 5.41797L4.15171 5.41797Z" fill="#000000" transform="translate(77.611 70.048)" />
    <path id="Path" d="M3.1853 4.08115C3.08765 3.91903 2.9534 3.7476 2.78554 3.57178C2.61926 3.39666 2.40354 3.20418 2.14489 2.99854L1.89854 2.80517C1.68881 2.64234 1.51338 2.4953 1.37684 2.36756C1.241 2.24035 1.13121 2.12085 1.04957 2.01118C0.969505 1.9031 0.913025 1.79501 0.881706 1.68991C0.850388 1.58498 0.834373 1.47076 0.834373 1.35039C0.834373 1.03753 0.936607 0.791702 1.13807 0.618866C1.34007 0.445328 1.59415 0.356895 1.89169 0.356895C2.0877 0.356895 2.25397 0.376022 2.38594 0.413223C2.51791 0.4506 2.627 0.495514 2.70934 0.546577C2.79169 0.597458 2.85275 0.648521 2.89163 0.6987C2.94125 0.762749 2.96025 0.793983 2.96941 0.810654C2.99686 0.854874 3.02132 0.924179 3.0412 1.0177C3.06178 1.11369 3.07463 1.18826 3.08079 1.2409C3.08694 1.27581 3.09293 1.30547 3.09908 1.32687C3.10436 1.34512 3.12125 1.37635 3.17686 1.37635C3.25463 1.37635 3.26378 1.24616 3.26378 1.14877C3.26378 0.851006 3.26994 0.62571 3.28137 0.478844C3.29369 0.324265 3.29897 0.241264 3.29897 0.217583C3.29897 0.184944 3.28455 0.130898 3.1853 0.130898C3.15099 0.130898 3.11211 0.127914 3.07005 0.122475C3.02747 0.11721 2.96413 0.104935 2.88407 0.0882645C2.77181 0.058609 2.64759 0.036499 2.51474 0.0219345C2.38207 0.00754547 2.22881 0 2.05866 0C1.77573 0 1.51796 0.0387802 1.29362 0.115631C1.06857 0.19249 0.87326 0.303734 0.713142 0.446037C0.552147 0.588333 0.427917 0.760468 0.341698 0.956116C0.255486 1.15176 0.212021 1.37092 0.212021 1.6085C0.212021 1.7622 0.228737 1.9138 0.260765 2.05839C0.293663 2.20385 0.353142 2.35686 0.439354 2.51373C0.524696 2.67041 0.642937 2.83342 0.790215 2.99783C0.936607 3.16154 1.13033 3.3435 1.3654 3.53687L1.76113 3.86182C1.94729 4.01869 2.1067 4.16187 2.23497 4.28733C2.36219 4.41225 2.466 4.53473 2.54378 4.65282C2.62084 4.77003 2.67803 4.89181 2.71233 5.01516C2.74665 5.13851 2.76424 5.27713 2.76424 5.42628C2.76424 5.56331 2.73838 5.70263 2.68647 5.83967C2.63527 5.97671 2.55837 6.09918 2.45844 6.20499C2.35849 6.3108 2.22952 6.39923 2.07468 6.46767C1.92054 6.53627 1.73755 6.57119 1.5308 6.57119C1.3867 6.57119 1.24329 6.55522 1.10516 6.52328C0.967918 6.49206 0.838242 6.44099 0.720703 6.37256C0.60405 6.30396 0.50499 6.21341 0.424751 6.10304C0.345573 5.99268 0.287514 5.85564 0.253197 5.69649C0.24176 5.63332 0.234192 5.57401 0.231903 5.51997C0.228737 5.46505 0.227333 5.41715 0.227333 5.37609C0.227333 5.26941 0.172432 5.25414 0.140236 5.25414C0.083046 5.25414 0.0510254 5.30977 0.0441589 5.41785C0.0381775 5.48786 0.0297318 5.60525 0.0175934 5.76966C0.00615692 5.93179 0 6.12743 0 6.35115C0 6.47223 0.00598145 6.55066 0.0190048 6.59102C0.0327301 6.63663 0.0754852 6.67401 0.147095 6.70595C0.330261 6.79192 0.524696 6.85281 0.726158 6.8879C0.92675 6.92212 1.13191 6.93967 1.33778 6.93967C1.57884 6.93967 1.81761 6.91159 2.04793 6.85509C2.27914 6.79877 2.49274 6.70139 2.68119 6.56593C2.83515 6.45924 2.96325 6.33747 3.06091 6.20428C3.15855 6.07181 3.23633 5.93547 3.29281 5.79931C3.34859 5.66386 3.38818 5.53208 3.40877 5.40715C3.42935 5.2831 3.44009 5.17501 3.44009 5.08675C3.44009 4.91005 3.42178 4.7381 3.3866 4.57597C3.35088 4.41296 3.28366 4.24785 3.1853 4.08484L3.1853 4.08115L3.1853 4.08115Z" fill="#000000" transform="translate(85.749 69.926)" />
    <path id="Path" d="M5.56061 0.0608902C5.54073 0.0608902 5.5103 0.0654526 5.46753 0.0745773C5.42636 0.0837021 5.37446 0.0935287 5.31041 0.105103C5.24179 0.116508 5.15557 0.127037 5.05264 0.13546C4.95111 0.143883 4.82901 0.148445 4.68948 0.148445L1.38985 0.148445C1.33794 0.148445 1.24029 0.143883 1.10075 0.13546C0.958061 0.126335 0.82222 0.116508 0.697121 0.105103C0.583633 0.0935287 0.499695 0.0738754 0.447098 0.0463257C0.386742 0.0152664 0.340996 0 0.307388 0C0.263222 0 0.24176 0.0593109 0.234901 0.0784378C0.220467 0.11879 0.207451 0.153709 0.195305 0.184242C0.189148 0.202492 0.176308 0.253548 0.154839 0.344788C0.134254 0.43235 0.112083 0.52903 0.088501 0.634834C0.0649261 0.740639 0.044342 0.838905 0.026741 0.929443C0.00843811 1.02315 0 1.08017 0 1.10526C0 1.19668 0.0434647 1.20966 0.0695038 1.20966C0.115952 1.20966 0.153435 1.17457 0.18158 1.10526C0.193016 1.07719 0.208328 1.04438 0.228905 1.00718C0.249496 0.969101 0.283112 0.911896 0.328857 0.838203C0.362289 0.787842 0.402046 0.746086 0.446213 0.71257C0.490547 0.679756 0.546852 0.653084 0.614075 0.63343C0.682693 0.613602 0.765045 0.597641 0.860405 0.586235C0.956474 0.574654 1.07243 0.568687 1.20527 0.568687L2.48128 0.55114L2.48128 4.24031C2.48128 4.65967 2.4797 5.03955 2.4767 5.36838C2.47372 5.6965 2.46069 5.95689 2.43712 6.14271C2.41952 6.26834 2.39506 6.37643 2.36391 6.46241C2.33488 6.54224 2.28139 6.58875 2.20064 6.60471C2.16087 6.61612 2.11829 6.62453 2.07254 6.63068C2.0275 6.63664 1.98404 6.63892 1.94357 6.63892C1.85664 6.63892 1.8475 6.69385 1.8475 6.71736C1.8475 6.7814 1.90309 6.81334 2.01377 6.81334C2.07852 6.81334 2.15788 6.81176 2.25254 6.80878L2.52562 6.79965C2.61324 6.79667 2.69102 6.79351 2.75893 6.79053C2.82526 6.78754 2.86504 6.78596 2.87647 6.78596C2.88789 6.78596 2.92749 6.78754 2.99383 6.79053C3.06104 6.79351 3.14638 6.79667 3.24949 6.79965C3.35241 6.80264 3.46519 6.80579 3.58801 6.80878C3.71082 6.81176 3.83523 6.81334 3.95805 6.81334C4.06854 6.81334 4.12432 6.7814 4.12432 6.71736C4.12432 6.69385 4.11517 6.63892 4.02824 6.63892C3.98707 6.63892 3.92673 6.63594 3.84966 6.63068C3.77189 6.62524 3.70027 6.61612 3.63535 6.60471C3.50866 6.58804 3.4286 6.54154 3.3913 6.46083C3.35153 6.37643 3.32567 6.26974 3.31423 6.14341C3.29136 5.95759 3.27763 5.69737 3.27465 5.36926C3.27148 5.05026 3.27007 4.68108 3.27007 4.24101L3.27007 0.551842L4.35236 0.569389C4.56139 0.575531 4.73681 0.591492 4.87177 0.617287C5.00601 0.643257 5.11353 0.675896 5.19059 0.716255C5.26537 0.755211 5.31956 0.801529 5.35229 0.856453C5.38519 0.911201 5.4049 0.969803 5.41035 1.02999L5.41949 1.12667C5.42778 1.21721 5.43693 1.24546 5.44396 1.25915C5.45311 1.27739 5.47282 1.2995 5.51487 1.2995C5.55446 1.2995 5.60178 1.27511 5.60178 1.15931C5.60178 1.1365 5.60337 1.08561 5.60636 1.0063C5.60935 0.927162 5.61253 0.838203 5.61551 0.738365L5.62466 0.440071C5.62766 0.340233 5.62923 0.25811 5.62923 0.193367C5.62923 0.162834 5.62766 0.137039 5.62466 0.114929C5.62009 0.0821228 5.59563 0.0624695 5.55974 0.0624695L5.56061 0.0608902L5.56061 0.0608902Z" fill="#000000" transform="translate(90.115 69.924)" />
    <path id="Path" d="M6.48646 0C6.42153 0 6.34921 0.00157928 6.26986 0.00456238L6.04095 0.0136871C5.96776 0.0168457 5.9044 0.0198288 5.8511 0.0228119C5.79919 0.0259705 5.76418 0.0273743 5.74658 0.0273743C5.73515 0.0273743 5.69855 0.0259705 5.63749 0.0228119C5.57573 0.0198288 5.50095 0.0168457 5.41245 0.0136871C5.32482 0.010704 5.22787 0.00754547 5.12177 0.00456238C5.01656 0.00157928 4.91292 0 4.81298 0C4.70231 0 4.64671 0.0319366 4.64671 0.0959854C4.64671 0.119492 4.65585 0.174416 4.74277 0.174416C4.78324 0.174416 4.83427 0.175819 4.89532 0.178978C4.95409 0.181961 5.00055 0.188805 5.03644 0.200211C5.17526 0.228455 5.26746 0.277061 5.31023 0.346367C5.35455 0.418663 5.38271 0.529907 5.39415 0.677475C5.40031 0.746788 5.404 0.822235 5.40717 0.900673C5.41016 0.978928 5.41174 1.08491 5.41174 1.21581L5.41174 3.67093C5.41174 4.1238 5.37743 4.5365 5.31023 4.89568C5.24389 5.25275 5.10735 5.55965 4.90605 5.80618C4.75034 5.98971 4.54817 6.14114 4.30571 6.25607C4.06396 6.37117 3.80602 6.42978 3.54068 6.42978C3.29118 6.42978 3.06085 6.40083 2.85499 6.34292C2.65125 6.2859 2.43992 6.15482 2.2265 5.95391C2.13412 5.86794 2.0465 5.76441 1.96556 5.64632C1.8848 5.52911 1.8146 5.38453 1.75741 5.21783C1.69934 5.05026 1.65359 4.85006 1.62157 4.6209C1.58955 4.39262 1.57354 4.11766 1.57354 3.80341L1.57354 1.21651C1.57354 1.08035 1.57495 0.977524 1.57811 0.901375C1.5811 0.822937 1.58568 0.748367 1.59113 0.67836C1.60257 0.530609 1.62914 0.41568 1.67189 0.33725C1.71236 0.261971 1.78556 0.217758 1.89693 0.200912C1.94884 0.189507 1.99001 0.182663 2.02116 0.17968C2.05248 0.176697 2.0831 0.175117 2.11124 0.175117C2.19817 0.175117 2.20732 0.120369 2.20732 0.0966873C2.20732 0.0533447 2.17846 0.000709534 2.04105 0.000709534C1.97629 0.000709534 1.89852 0.00228119 1.80685 0.00526428L1.53923 0.0145645C1.45143 0.0175476 1.37296 0.0205307 1.30345 0.0236893C1.23483 0.0266724 1.19137 0.0282516 1.17377 0.0282516C1.15636 0.0282516 1.11201 0.0266724 1.03953 0.0236893C0.967033 0.0205307 0.882401 0.0175476 0.786324 0.0145645C0.690262 0.0114059 0.588036 0.00842285 0.478951 0.00526428C0.369858 0.00228119 0.266212 0.000709534 0.166275 0.000709534C0.0556107 0.000709534 0 0.032814 0 0.0966873C0 0.120369 0.00914764 0.175117 0.0960693 0.175117C0.136536 0.175117 0.187569 0.176697 0.248627 0.17968C0.307388 0.182663 0.353844 0.189507 0.38974 0.200912C0.528564 0.229156 0.620064 0.277939 0.663513 0.347076C0.707855 0.41954 0.73671 0.530609 0.747452 0.67836C0.753601 0.747665 0.757301 0.822937 0.760468 0.901375C0.763466 0.981209 0.765038 1.08789 0.765038 1.21651L0.765038 3.85587C0.765038 4.17785 0.78405 4.46263 0.822227 4.70319C0.860405 4.94376 0.914421 5.15993 0.984627 5.34487C1.05482 5.53069 1.13718 5.69212 1.23096 5.82442C1.32404 5.95689 1.42469 6.07796 1.53008 6.18465C1.69019 6.33221 1.86263 6.45031 2.04333 6.53558C2.22263 6.62086 2.40103 6.68473 2.57276 6.72579C2.74432 6.76702 2.90145 6.79211 3.04028 6.80124C3.17751 6.81036 3.2866 6.81422 3.36366 6.81422C3.49176 6.81422 3.63216 6.8065 3.78085 6.79211C3.92812 6.77755 4.08138 6.74632 4.2355 6.69912C4.38876 6.65209 4.54905 6.58507 4.71146 6.49979C4.87404 6.41451 5.03715 6.29958 5.19743 6.15797C5.37514 5.99883 5.51925 5.81459 5.62605 5.61053C5.73215 5.40804 5.8159 5.1873 5.87537 4.95516C5.93414 4.72302 5.97303 4.48246 5.99062 4.23961C6.00822 3.99589 6.01737 3.75164 6.01737 3.51336L6.01737 1.21651C6.01737 1.08175 6.01878 0.978928 6.02194 0.901375C6.02493 0.822937 6.0295 0.748367 6.03496 0.67836C6.0464 0.530609 6.07297 0.41954 6.11502 0.346367C6.15532 0.277061 6.23168 0.227585 6.34077 0.200211C6.39268 0.188805 6.43455 0.181961 6.46516 0.178978C6.49631 0.175819 6.52692 0.174416 6.55508 0.174416C6.642 0.174416 6.65115 0.119492 6.65115 0.0959854C6.65115 0.0524673 6.62229 0 6.48487 0L6.48646 0L6.48646 0Z" fill="#000000" transform="translate(96.263 70.047)" />
    <path id="Shape" d="M6.49565 1.90852C6.41631 1.72358 6.32323 1.55531 6.22029 1.40757C6.11736 1.26141 6.00897 1.12753 5.89619 1.00945C5.63067 0.739227 5.33471 0.532181 5.01659 0.393562C4.69936 0.255821 4.37507 0.156158 4.05167 0.0975571C3.72914 0.0387726 3.4156 0.00771332 3.11894 0.00456238C2.82211 0.00157928 2.56593 0 2.34844 0C2.21419 0 2.08082 0.00157928 1.95185 0.00456238C1.82287 0.00771332 1.70393 0.0106964 1.59571 0.0136871C1.48663 0.0168381 1.39266 0.0198212 1.31348 0.0228043C1.23484 0.0259628 1.18381 0.0273666 1.16006 0.0273666C1.14862 0.0273666 1.10903 0.0259628 1.04269 0.0228043C0.974777 0.0198212 0.893135 0.0168381 0.796188 0.0136871C0.699409 0.0106964 0.594894 0.00771332 0.483513 0.00456238C0.372139 0.00157928 0.26622 0 0.166275 0C0.0555954 0 0 0.031929 0 0.0959778C0 0.119492 0.00914764 0.174408 0.096077 0.174408C0.136543 0.174408 0.187561 0.175812 0.248627 0.17897C0.307388 0.181953 0.353836 0.188797 0.389732 0.200203C0.528557 0.228455 0.620766 0.277054 0.663521 0.346367C0.70768 0.418655 0.736008 0.5299 0.747444 0.677643C0.753609 0.746773 0.757301 0.821518 0.760475 0.900658C0.763458 0.980492 0.765045 1.08717 0.765045 1.21579L0.765045 4.11848C0.765045 4.5303 0.763458 4.91018 0.760475 5.24672C0.757301 5.57554 0.744461 5.83592 0.720703 6.02087C0.703102 6.1465 0.678818 6.25459 0.647507 6.34056C0.618477 6.42057 0.565155 6.4669 0.484222 6.48286C0.444626 6.49445 0.401878 6.50269 0.356125 6.50883C0.311089 6.51497 0.267624 6.51725 0.227158 6.51725C0.140236 6.51725 0.131081 6.572 0.131081 6.59569C0.131081 6.65955 0.186867 6.69149 0.297363 6.69149C0.362289 6.69149 0.440056 6.68851 0.536827 6.68237C0.629913 6.67622 0.720703 6.67394 0.809906 6.67324C0.902992 6.6671 0.982346 6.66482 1.04568 6.66482L1.16006 6.66482C1.17607 6.66482 1.23026 6.66798 1.39584 6.68237C1.5285 6.69377 1.69021 6.70518 1.88938 6.71746C2.07695 6.72887 2.28141 6.74097 2.50099 6.75238C2.72146 6.76378 2.92821 6.76992 3.11437 6.76992C3.48949 6.76992 3.82593 6.73571 4.11431 6.66798C4.40181 6.60095 4.65818 6.5141 4.87636 6.41145C5.09437 6.30862 5.28053 6.19668 5.43079 6.07877C5.58035 5.96156 5.70457 5.85101 5.79853 5.75135C5.92205 5.62274 6.04257 5.47044 6.15765 5.29989C6.27219 5.12933 6.37513 4.93755 6.46363 4.72893C6.55213 4.52048 6.62305 4.28974 6.67635 4.04391C6.72897 3.79721 6.75642 3.53226 6.75642 3.25678C6.75642 2.98113 6.73284 2.74583 6.6855 2.52282C6.63835 2.2991 6.57413 2.09205 6.49496 1.90781L6.49565 1.90852L6.49565 1.90852ZM2.21734 0.35022C2.47881 0.35022 2.73974 0.360916 2.99382 0.380569C3.24632 0.401276 3.49493 0.446198 3.73212 0.516205C3.96931 0.58551 4.20419 0.68676 4.43082 0.81678C4.65656 0.946968 4.87317 1.12068 5.07604 1.33457C5.16226 1.42669 5.25693 1.54232 5.35528 1.67866C5.45364 1.81412 5.54602 1.97466 5.62994 2.1575C5.7137 2.34016 5.7832 2.5465 5.83511 2.7718C5.88683 2.99709 5.91358 3.25221 5.91358 3.52998C5.91358 3.73246 5.89915 3.93495 5.87012 4.13217C5.84109 4.32939 5.79534 4.52117 5.73516 4.70313C5.6741 4.88508 5.59933 5.05634 5.51241 5.21233C5.42619 5.36761 5.32625 5.50166 5.21716 5.61045C4.95709 5.87014 4.64443 6.07192 4.289 6.21124C3.9327 6.34969 3.54684 6.42057 3.14091 6.42057C2.88385 6.42057 2.66425 6.40987 2.48813 6.39004C2.31182 6.37021 2.16544 6.34214 2.05247 6.30792C1.94109 6.27353 1.85417 6.23634 1.79539 6.19668C1.7368 6.15791 1.69317 6.11825 1.66502 6.07947C1.64971 6.05894 1.63599 6.02385 1.62543 5.97524C1.61399 5.92419 1.60484 5.86558 1.59939 5.80312C1.59323 5.73924 1.58796 5.67292 1.58179 5.60519C1.57581 5.53974 1.57352 5.48043 1.57352 5.4278C1.57352 5.38673 1.57195 5.3076 1.56895 5.19039C1.56578 5.07301 1.5628 4.93 1.5598 4.76015C1.55663 4.59276 1.55522 4.40624 1.55522 4.19007L1.55522 1.35738C1.55522 1.18227 1.55663 1.0247 1.5598 0.887665C1.5628 0.746765 1.56438 0.63868 1.56438 0.561829C1.56438 0.48497 1.59411 0.434792 1.65199 0.4104C1.66344 0.40654 1.6886 0.399696 1.74121 0.388992C1.78396 0.380569 1.83517 0.373024 1.89305 0.36776C1.95112 0.361618 2.00831 0.357765 2.0632 0.354774C2.1181 0.351799 2.16913 0.35022 2.21576 0.35022L2.21734 0.35022L2.21734 0.35022Z" fill="#000000" fill-rule="evenodd" transform="translate(104.079 70.046)" />
    <path id="Path" d="M2.2081 6.51639C2.16693 6.51639 2.10676 6.5134 2.0297 6.50814C1.95193 6.50271 1.88015 6.49358 1.81539 6.48218C1.68872 6.46551 1.60867 6.41901 1.57137 6.33829C1.5316 6.25372 1.50573 6.14722 1.49429 6.02088C1.47142 5.83506 1.45771 5.57468 1.45454 5.24655C1.45155 4.92002 1.44997 4.55084 1.44997 4.1185L1.44997 1.2158C1.44997 1.08104 1.45155 0.978218 1.45454 0.900665C1.45771 0.822227 1.46228 0.747658 1.46755 0.677475C1.47899 0.529907 1.50573 0.416382 1.54849 0.341103C1.58878 0.267937 1.66197 0.222313 1.77334 0.200211C1.82526 0.188805 1.86642 0.181961 1.89774 0.178978C1.92905 0.175819 1.9595 0.174416 1.98783 0.174416C2.07474 0.174416 2.08389 0.119492 2.08389 0.0959854C2.08389 0.0524673 2.05486 0 1.91762 0C1.8527 0 1.77334 0.00157928 1.67886 0.00456238L1.40579 0.0136871C1.31801 0.0168457 1.23952 0.0198288 1.17233 0.0228119C1.10528 0.0259705 1.06641 0.0273743 1.05497 0.0273743C1.04353 0.0273743 1.00377 0.0259705 0.937431 0.0228119C0.869522 0.0198288 0.791748 0.0168457 0.704132 0.0136871C0.616333 0.010704 0.521851 0.00754547 0.422615 0.00456238C0.322678 0.00157928 0.23735 0 0.166267 0C0.0557785 0 0 0.0319366 0 0.0959854C0 0.119492 0.00914764 0.174416 0.0962448 0.174416C0.123688 0.174416 0.163979 0.177399 0.216766 0.182663C0.267792 0.188805 0.317406 0.197227 0.363152 0.208633C0.533997 0.247406 0.625481 0.400414 0.642372 0.677475C0.648354 0.74678 0.652229 0.82135 0.65522 0.900665C0.658386 0.980499 0.65979 1.08718 0.65979 1.2158L0.65979 4.1185C0.65979 4.53031 0.658386 4.91019 0.65522 5.24655C0.652229 5.57555 0.639206 5.83594 0.615631 6.02088C0.59803 6.14651 0.573578 6.2546 0.542442 6.34058C0.513412 6.42059 0.459923 6.46691 0.379166 6.48288C0.339569 6.49429 0.296822 6.50271 0.251076 6.50884C0.206032 6.51498 0.162575 6.51727 0.122108 6.51727C0.0351944 6.51727 0.0260391 6.57201 0.0260391 6.59553C0.0260391 6.65957 0.0816345 6.69151 0.192314 6.69151C0.257057 6.69151 0.336403 6.68993 0.431068 6.68694L0.704132 6.67782C0.791748 6.67484 0.869522 6.67168 0.937431 6.66869C1.00377 6.66571 1.04353 6.66413 1.05497 6.66413C1.06641 6.66413 1.10599 6.66571 1.17233 6.66869C1.23952 6.67168 1.32487 6.67484 1.42797 6.67782C1.53089 6.6808 1.64367 6.68396 1.76648 6.68694C1.88929 6.68993 2.01369 6.69151 2.1365 6.69151C2.24699 6.69151 2.30276 6.65957 2.30276 6.59553C2.30276 6.57201 2.29362 6.51727 2.2067 6.51727L2.2081 6.51639L2.2081 6.51639Z" fill="#000000" transform="translate(112.166 70.047)" />
    <path id="Shape" d="M6.71004 1.93434C6.5332 1.52637 6.28686 1.17457 5.97789 0.889084C5.66891 0.604477 5.29747 0.382164 4.87341 0.229858C4.45007 0.0775528 3.98555 0 3.492 0C3.08695 0 2.71393 0.0517578 2.38435 0.154579C2.05497 0.257225 1.75674 0.398834 1.49808 0.574829C1.23943 0.750641 1.01367 0.957687 0.8284 1.19054C0.642937 1.42197 0.486687 1.66938 0.363167 1.92451C0.239471 2.18034 0.14727 2.44371 0.088501 2.70709C0.0297394 2.97047 0 3.22401 0 3.45914C0 3.85815 0.0656281 4.26699 0.194427 4.67424C0.32341 5.08221 0.529442 5.45911 0.806221 5.79408C1.08318 6.12904 1.44247 6.4061 1.87498 6.61771C2.30747 6.82932 2.83375 6.93671 3.43938 6.93671C3.96795 6.93671 4.45692 6.84003 4.89312 6.64894C5.3279 6.45856 5.70393 6.19606 6.01061 5.87022C6.3166 5.54438 6.55678 5.15765 6.72463 4.71986C6.89232 4.28296 6.97713 3.81165 6.97713 3.31841C6.97713 2.825 6.88792 2.34247 6.71091 1.93364L6.71004 1.93434L6.71004 1.93434ZM3.6773 6.55226C3.28369 6.55226 2.91453 6.47312 2.57899 6.31783C2.24326 6.16167 1.9459 5.93638 1.69411 5.6479C1.4425 5.35856 1.24261 5.00465 1.10062 4.59353C0.958794 4.18311 0.886307 3.71883 0.886307 3.21401C0.886307 2.73903 0.951233 2.31808 1.07863 1.96259C1.20602 1.6078 1.38443 1.30634 1.61018 1.06648C1.83523 0.827492 2.10603 0.64624 2.41499 0.528328C2.72468 0.41024 3.06638 0.350227 3.43095 0.350227C3.77197 0.350227 4.1061 0.420242 4.42406 0.558685C4.74218 0.697304 5.02599 0.903648 5.26933 1.17159C5.5125 1.4404 5.7101 1.77835 5.85808 2.17806C6.00606 2.57759 6.08083 3.04433 6.08083 3.56583C6.08083 4.1968 5.99164 4.7153 5.81461 5.1059C5.63761 5.4956 5.42101 5.80161 5.1701 6.01481C4.91918 6.228 4.65437 6.37258 4.38376 6.44417C4.11137 6.51646 3.8742 6.55296 3.6773 6.55296L3.6773 6.55226L3.6773 6.55226Z" fill="#000000" fill-rule="evenodd" transform="translate(115.476 69.924)" />
  </g>
</svg>