<?xml version="1.0" encoding="utf-8"?>
<svg width="467" height="330" viewBox="0 0 467 330" fill="none" xmlns="http://www.w3.org/2000/svg">
  <g>
    <rect width="467" height="330" />
    <path id="Path" d="M196.238 183.542C203.272 196.549 237.849 239.794 238.388 240.47C237.779 239.953 198.732 206.707 183.927 199.274C174.973 214.258 167.886 207.891 163.033 330C158.185 207.891 151.095 214.258 142.14 199.274C127.335 206.707 88.2891 239.951 87.6786 240.47C88.2174 239.796 122.796 196.551 129.829 183.542C120.501 177.175 111.173 171.929 0 163.314C112.295 167.061 130.948 144.211 130.948 144.211L85.0603 87.6489C85.0603 87.6489 123.113 117.617 143.259 130.351C162.29 110.126 163.033 0 163.033 0C163.033 0 163.779 110.126 182.805 130.353C202.953 117.619 241.005 87.6514 241.005 87.6514L195.118 144.213C195.118 144.213 213.771 167.063 326.064 163.317C214.891 171.931 205.563 177.176 196.236 183.543L196.238 183.542L196.238 183.542Z" fill="#D69F9F" transform="translate(14.822 0)" />
    <path id="Path" d="M35.7809 27.1203L25.9782 25.0044L30.0563 34.202L22.3548 27.7562L21.7084 37.8022L17.8734 28.5003L12.6492 37.0936L13.5597 27.0669L4.95825 32.2408L10.4045 23.7872L0.392776 24.3529L9.12726 19.4107L0 15.2404L10.0247 14.9392L3.87332 6.98859L12.8861 11.3986L11.1202 1.48864L17.0607 9.59821L20.0829 0L21.5884 9.9522L28.7091 2.86238L25.4358 12.378L35.0208 9.42432L27.7188 16.3216L37.5716 18.1767L27.9131 20.8782L35.7809 27.1203L35.7809 27.1203Z" fill="#D69F9F" transform="translate(250.505 60.682)" />
    <path id="Path" d="M35.7791 27.1222L25.9764 25.0063L30.0538 34.2039L22.3523 27.7562L21.7066 37.8016L17.8716 28.5003L12.6492 37.0955L13.5591 27.0688L4.95639 32.2427L10.4021 23.789L0.390923 24.3554L9.12662 19.4107L0 15.2422L10.0223 14.941L3.87084 6.99046L12.8855 11.398L11.1183 1.49049L17.0582 9.60007L20.0823 0L21.5878 9.95407L28.7066 2.86424L25.4333 12.3799L35.0189 9.42433L27.7163 16.3235L37.5716 18.1785L27.9124 20.8801L35.7791 27.1222L35.7791 27.1222Z" fill="#D69F9F" transform="translate(78.22 231.942)" />
    <path id="Shape" d="M107.084 173.954C92.1291 173.954 78.1537 172.832 65.369 170.6C47.6561 167.506 33.1021 162.43 22.1085 155.511C10.57 148.25 3.45776 139.26 0.970159 128.792C-1.51745 118.325 0.78433 107.079 7.81213 95.3665C14.5084 84.2095 25.2106 73.0829 39.6231 62.2905C53.9765 51.5434 71.3033 41.6564 91.1215 32.904C111.618 23.853 133.905 16.4129 157.362 10.7918C180.819 5.17139 204.05 1.70473 226.409 0.485626C248.029 -0.691254 267.936 0.273224 285.575 3.35422C303.288 6.44762 317.842 11.5234 328.836 18.4418C340.374 25.7037 347.486 34.6932 349.974 45.1609C352.462 55.6286 350.16 66.8744 343.132 78.5866C336.436 89.7437 325.734 100.871 311.321 111.663C296.968 122.41 279.641 132.297 259.822 141.049C239.326 150.101 217.039 157.541 193.582 163.161C170.125 168.782 146.894 172.249 124.535 173.468C118.585 173.792 112.765 173.954 107.086 173.954L107.084 173.954L107.084 173.954ZM243.672 2.73682C216.985 2.73682 187.69 6.35811 158 13.4721C111.922 24.5143 70.4646 42.6357 41.2661 64.5001C27.1407 75.0777 16.675 85.9397 10.1646 96.7893C3.52115 107.859 1.32497 118.411 3.64152 128.152C5.95598 137.892 12.6607 146.312 23.5677 153.177C34.2573 159.905 48.4797 164.854 65.8404 167.886C78.6034 170.114 92.5429 171.219 107.272 171.219C133.96 171.219 163.254 167.597 192.944 160.483C239.022 149.441 280.479 131.319 309.678 109.455C323.803 98.8778 334.269 88.0158 340.78 77.1662C347.423 66.0961 349.62 55.544 347.303 45.8036C344.989 36.0632 338.284 27.6437 327.377 20.7781C316.687 14.051 302.465 9.10187 285.104 6.06995C272.341 3.84164 258.402 2.73682 243.672 2.73682L243.672 2.73682Z" fill="#D69F9F" fill-rule="evenodd" transform="translate(2.347 79.936)" />
    <path id="Shape" d="M57.8662 1.69767C74.6813 1.69767 93.8221 3.93031 114.754 8.33598C136.452 12.9031 158.935 19.5737 181.579 28.1646C203.07 36.3195 223.364 45.6973 241.892 56.042C259.766 66.0196 275.248 76.4687 287.911 87.0928C300.501 97.658 309.644 107.846 315.088 117.374C320.566 126.958 321.998 135.388 319.349 142.427C316.845 149.083 310.768 154.256 301.284 157.807C291.853 161.338 279.466 163.13 264.468 163.13C247.65 163.13 228.51 160.897 207.579 156.491C185.878 151.924 163.393 145.253 140.747 136.66C119.256 128.506 98.9622 119.128 80.4338 108.783C62.5603 98.8051 47.0772 88.3567 34.4153 77.7319C21.8252 67.1667 12.6815 56.9791 7.23751 47.4505C1.75969 37.8672 0.327944 29.4371 2.97605 22.3976C5.48054 15.7425 11.5581 10.5686 21.0418 7.01751C30.4727 3.4875 42.8601 1.6958 57.8619 1.6958L57.8662 1.6958M57.8575 0C27.9007 0 6.88482 7.20844 1.39438 21.798C-10.2116 52.6352 51.9109 104.772 140.147 138.248C186.641 155.887 231.099 164.826 264.466 164.826C294.423 164.826 315.439 157.617 320.929 143.027C332.536 112.191 270.413 60.0535 182.177 26.5769C135.683 8.93867 91.2249 0 57.8594 0L57.8575 0L57.8575 0Z" fill="#FFC4C5" fill-rule="evenodd" transform="translate(10.729 84.267)" />
    <path id="Shape" d="M19.4489 9.42285L20.7962 16.8139C20.9229 17.507 21.4635 18.0497 22.1541 18.1771L29.5155 19.5297L22.1541 20.8829C21.4635 21.0096 20.9229 21.5524 20.7962 22.2461L19.4489 29.6372L18.1017 22.2461C17.9749 21.5524 17.4343 21.0096 16.7439 20.8829L9.38239 19.5297L16.7439 18.1771C17.4343 18.0497 17.9749 17.507 18.1017 16.8139L19.4489 9.42285L19.4489 9.42285ZM19.4489 0L16.4397 16.5061L0 19.5293L16.4397 22.5507L19.4489 39.0574L22.4582 22.5507L38.8979 19.5293L22.4582 16.5079L19.4489 0.00186157L19.4489 0L19.4489 0Z" fill="#FFC4C5" fill-rule="evenodd" transform="translate(0 146.231)" />
    <path id="Shape" d="M19.449 9.42285L20.7962 16.8139C20.923 17.5076 21.4636 18.0504 22.1545 18.1777L29.5157 19.5303L22.1545 20.8829C21.4636 21.0103 20.923 21.553 20.7962 22.2461L19.449 29.6372L18.1018 22.2461C17.975 21.553 17.4344 21.0103 16.7441 20.8829L9.38278 19.5303L16.7441 18.1777C17.4344 18.0504 17.975 17.5076 18.1018 16.8139L19.449 9.42285L19.449 9.42285ZM19.4489 0L16.4396 16.5061L0 19.5274L16.4396 22.5488L19.4489 39.0555L22.4581 22.5488L38.8977 19.5274L22.4581 16.5061L19.4489 0L19.4489 0Z" fill="#FFC4C5" fill-rule="evenodd" transform="translate(316.175 145.472)" />
    <path id="Shape" d="M264.654 1.69629C279.677 1.69629 292.078 3.48364 301.514 7.00745C310.998 10.5505 317.067 15.7157 319.552 22.354C322.177 29.3699 320.718 37.7658 315.215 47.3112C309.743 56.8038 300.57 66.951 287.955 77.4721C275.265 88.0541 259.756 98.4559 241.86 108.389C223.306 118.688 202.994 128.023 181.486 136.135C158.85 144.673 136.379 151.303 114.699 155.841C93.782 160.217 74.6585 162.437 57.8551 162.437C42.8303 162.437 30.4282 160.65 20.9931 157.126C11.5093 153.583 5.44022 148.417 2.95473 141.779C0.329876 134.763 1.78908 126.367 7.29221 116.822C12.7637 107.329 21.937 97.1815 34.5545 86.6611C47.2438 76.0791 62.7521 65.6773 80.6491 55.7437C99.2029 45.4456 119.515 36.1101 141.023 27.998C163.656 19.46 186.128 12.8297 207.811 8.29238C228.727 3.91651 247.851 1.69629 264.656 1.69629M264.652 0C231.316 0 186.894 8.88152 140.426 26.4098C52.1243 59.7169 -10.1337 111.637 1.36884 142.377C6.81709 156.941 27.8413 164.135 57.8508 164.135C91.1866 164.135 135.609 155.253 182.077 137.725C270.377 104.416 332.635 52.4973 321.132 21.7582C315.683 7.19415 294.659 -0.0018692 264.65 0L264.652 0L264.652 0Z" fill="#FFC4C5" fill-rule="evenodd" transform="translate(11.325 84.799)" />
    <path id="Shape" d="M141.367 41.0034C141.574 43.9801 141.808 47.0188 142.07 50.0824C145.054 85.0663 150.173 106.636 157.285 114.196C157.615 114.547 158.062 114.729 158.514 114.729C158.825 114.729 159.135 114.644 159.414 114.468C170.255 107.615 187.189 94.9235 198.443 86.3066L167.88 123.98C167.373 124.605 167.373 125.502 167.884 126.127C168.418 126.78 180.673 140.855 242.74 143.31C181.954 149.054 175.97 153.137 169.21 157.752C168.492 158.242 168.262 159.199 168.676 159.964C172.576 167.177 185.918 184.724 195.455 196.967C184.235 187.826 168.275 175.312 160.242 171.28C159.999 171.159 159.741 171.1 159.488 171.1C158.911 171.1 158.354 171.397 158.037 171.925C157.104 173.485 156.178 174.793 155.285 176.057C149.59 184.105 144.919 190.71 141.369 251.018C137.819 190.71 133.151 184.108 127.453 176.057C126.558 174.793 125.633 173.485 124.701 171.925C124.386 171.397 123.827 171.1 123.251 171.1C122.995 171.1 122.737 171.157 122.497 171.28C114.464 175.312 98.5035 187.826 87.2837 196.967C96.8179 184.724 110.162 167.177 114.062 159.964C114.476 159.199 114.246 158.242 113.529 157.752C106.767 153.137 100.784 149.054 39.9979 143.31C102.076 140.855 114.322 126.78 114.857 126.127C115.366 125.504 115.367 124.607 114.858 123.981L84.2937 86.3091C95.5468 94.9254 112.483 107.618 123.323 114.47C123.599 114.646 123.911 114.731 124.222 114.731C124.674 114.731 125.121 114.548 125.451 114.199C132.561 106.64 137.68 85.0682 140.666 50.0843C140.928 47.0188 141.16 43.9826 141.369 41.0053M141.369 0C141.369 0 140.723 95.4938 124.224 113.033C106.756 101.991 73.758 76.0049 73.758 76.0049L113.549 125.05C113.549 125.05 99.7343 141.976 20.7603 141.976C14.2879 141.976 7.37409 141.861 0 141.615C96.4022 149.085 104.49 153.633 112.578 159.154C106.48 170.434 76.495 207.933 76.028 208.518C76.5563 208.069 110.415 179.242 123.253 172.796C131.017 185.789 137.165 180.268 141.369 286.153C145.576 180.268 151.72 185.789 159.486 172.796C172.323 179.242 206.182 208.069 206.71 208.518C206.243 207.933 176.259 170.434 170.161 159.154C178.248 153.633 186.336 149.085 282.738 141.615C275.357 141.861 268.455 141.976 261.978 141.976C183.019 141.976 169.191 125.05 169.191 125.05L208.98 76.0049C208.98 76.0049 175.985 101.991 158.514 113.033C142.016 95.4938 141.369 0 141.369 0L141.369 0Z" fill="#FFC4C5" fill-rule="evenodd" transform="translate(22.255 23.386)" />
    <path id="Path" d="M103.377 104.252C100.492 104.405 99.0499 101.624 99.0499 95.9075C99.0499 91.1832 99.9604 85.3144 101.783 78.3028C102.239 76.5515 104.629 70.5684 108.956 60.3553C112.903 51.0577 114.877 46.1049 114.877 45.4944C114.877 43.8934 114.155 42.7507 112.715 42.0657C110.667 42.0657 108.54 44.0865 106.34 48.1252L97.9142 64.9305C93.8894 72.9321 90.3222 79.2207 87.2116 83.7922C80.0006 94.309 73.6228 99.5667 68.0837 99.5667C63.8331 99.5667 61.7084 96.2913 61.7084 89.7356C61.7084 83.1792 64.6292 73.7698 70.4763 60.5839C77.232 45.3416 81.1028 35.5478 82.0888 31.2061C82.9232 27.5482 83.3413 24.1182 83.3413 20.9186C83.3413 11.6973 79.6981 5.48505 72.4111 2.28544C68.9961 0.761406 65.1234 0 60.7985 0C52.601 0 44.0991 2.4407 35.2953 7.31712C25.1989 12.8804 17.0774 19.4746 10.9303 27.0923C3.64261 36.2372 0 45.8801 0 56.0149C0 62.95 1.82223 68.8574 5.46484 73.7338C9.48785 79.0686 14.8389 81.7353 21.5185 81.7353C24.9329 81.7353 28.5019 80.9361 32.2206 79.3356C37.9879 76.8974 42.8849 72.9724 46.9073 67.5619C51.1585 61.8459 53.2826 55.9789 53.2826 49.9572C53.2826 42.9457 50.36 39.4411 44.5147 39.4411C42.5403 39.4411 40.2264 39.9752 37.5697 41.0416C36.8875 41.2707 36.2411 41.6906 35.6331 42.2992C34.8729 42.9836 34.9106 43.3276 35.7469 43.3276C36.5052 43.3276 37.6266 43.1748 39.1068 42.8693C40.587 42.5662 41.7065 42.4116 42.4667 42.4116C47.4757 42.4116 49.9802 45.1547 49.9802 50.6422C49.9802 55.292 48.1957 60.3591 44.6292 65.8466C39.1637 74.3064 32.0666 78.5363 23.3389 78.5363C17.4176 78.5363 12.7507 76.2124 9.33382 71.5627C6.22131 67.3731 4.66444 62.1893 4.66444 56.0149C4.66444 46.9464 7.7751 38.1817 14.0007 29.7218C19.3895 22.3302 26.4112 16.1179 35.0652 11.0887C44.1727 5.75458 52.9003 3.0872 61.2525 3.0872C66.6413 3.0872 70.5882 4.07963 73.0927 6.05951C75.8997 8.27104 77.3056 12.0047 77.3056 17.2631C77.3056 21.1496 76.6598 25.6465 75.3695 30.7521C74.5333 34.03 70.6624 43.6711 63.757 59.6747C57.9879 73.0109 55.103 82.7663 55.103 88.9382C55.103 92.6737 55.9374 95.7591 57.6075 98.1973C59.58 101.015 62.3504 102.427 65.9194 102.427C73.2807 102.427 80.9482 97.2831 88.9181 86.9937C91.4987 83.7183 93.8133 80.2896 95.8638 76.7061C94.8753 81.9645 94.383 86.6906 94.383 90.8827C94.383 100.559 97.1262 105.896 102.617 106.886C103.292 107.038 104.102 106.96 105.041 106.657C105.981 106.352 106.452 105.858 106.452 105.171C106.452 104.408 105.428 104.102 103.377 104.257L103.377 104.252L103.377 104.252Z" fill="#000000" transform="translate(115.44 102.523)" />
    <path id="Path" d="M4.02274 9.37589C5.31302 9.37589 6.48886 8.91756 7.55151 8.004C8.61356 7.09044 9.25992 5.98561 9.48755 4.68764C9.71579 3.39214 9.43066 2.28792 8.63458 1.37189C7.83853 0.457703 6.79321 0 5.50293 0C4.21265 0 3.01514 0.457703 1.91721 1.37189C0.816833 2.28543 0.189636 3.39214 0.0380859 4.68764C-0.114075 5.98561 0.189636 7.08795 0.947968 8.004C1.7063 8.91756 2.73001 9.37589 4.02274 9.37589L4.02274 9.37589Z" fill="#000000" transform="translate(280.714 145.841)" />
    <path id="Path" d="M66.4916 36.0124C66.4916 40.3566 68.6163 42.5277 72.867 42.5277C78.7883 42.5277 84.3676 37.4985 89.6048 27.4383C92.1853 22.4855 95.1841 14.6336 98.5984 3.88835C98.9763 2.66924 99.1687 1.98422 99.1687 1.82959C99.1687 0.610489 98.4846 0 97.1183 0C95.7519 0 94.3478 0.685013 92.9053 2.05626C90.0204 4.72614 88.5786 8.22882 88.5786 12.573C88.5786 15.3168 89.0703 17.7568 90.0588 19.8901C85.0498 32.465 80.2666 38.7518 75.7135 38.7518C73.6631 38.7518 72.6393 37.647 72.6393 35.4354C72.6393 32.6923 73.9655 27.8916 76.624 21.0328C78.6745 15.6981 79.7724 11.0869 79.9264 7.20036C80.0006 3.9989 79.3567 2.39784 77.9904 2.39784C77.8382 2.39784 77.1158 2.43822 75.8279 2.51212L70.2487 3.4263C71.4629 3.73186 72.0709 5.25587 72.0709 7.99965C72.0709 10.3236 70.9748 14.2374 68.7895 19.7392C68.7834 19.7523 68.7766 19.761 68.7704 19.7734C62.3171 33.0332 57.044 39.5126 52.9455 39.2076C50.9705 39.0549 49.9846 37.8358 49.9846 35.5503C49.9846 34.5598 50.2128 33.3792 50.6668 32.0073C51.0447 30.8646 51.4629 29.7597 51.9187 28.6909L61.0268 7.31464C61.5569 6.09554 61.8229 5.29625 61.8229 4.91493C61.8229 3.77159 60.7584 3.23935 58.6343 3.31389L52.3727 3.42816C53.2832 4.72614 53.7391 5.86885 53.7391 6.85878C53.7391 7.31712 53.663 7.73694 53.5109 8.11641L48.8507 20.1062C42.5744 32.9165 37.4491 39.3244 33.4731 39.3244C32.1068 39.3244 31.4227 38.3363 31.4227 36.3602C31.4227 35.4485 31.4963 34.5386 31.6509 33.6251C32.1804 30.5888 34.1171 25.7273 37.4578 19.0399C38.7481 16.457 41.3664 11.5191 45.3133 4.22743C45.0096 4.15353 44.6317 4.11316 44.1752 4.11316C42.0486 4.11316 38.7481 5.37077 34.2692 7.88538C27.3619 11.7712 20.8721 17.5643 14.7993 25.2603C21.0225 12.5351 25.6151 5.37077 28.5761 3.76971C28.0436 3.9225 27.2097 3.884 26.0716 3.65546C24.9335 3.4263 24.1727 3.31201 23.7948 3.31201C21.8965 3.15924 20.2264 3.884 18.7858 5.48318C18.0256 6.39674 17.0019 8.07356 15.7116 10.5124C9.48599 22.555 4.25127 33.2245 0 42.5215C0.532562 42.216 2.01274 42.0253 4.44115 41.9489C6.3376 41.8725 7.58952 41.2639 8.19756 40.1193C13.2065 30.2137 18.4821 22.6674 24.023 17.4855C26.8293 14.8181 29.1842 13.1816 31.0825 12.5711C32.5231 12.1128 33.2449 12.4948 33.2449 13.7114C33.2449 14.5467 32.8651 15.5708 32.1068 16.7862C27.2475 24.6057 24.8191 30.5652 24.8191 34.6641C24.8191 39.5995 27.1714 42.0657 31.8785 42.0657C35.6733 42.0657 39.4303 39.3728 43.1509 33.9896C43.6958 33.1736 44.3527 32.0837 45.1216 30.7205C44.9484 31.6719 44.8575 32.5985 44.8575 33.4934C44.8575 38.981 47.3619 41.7241 52.3709 41.7241C57.3799 41.7241 63.3309 35.2808 69.4928 22.4004C69.632 22.2432 69.7693 22.0569 69.9023 21.8321C67.626 28.0829 66.4879 32.8065 66.4879 36.008L66.4916 36.0124L66.4916 36.0124Z" fill="#000000" transform="translate(218.701 158.758)" />
    <path id="Shape" d="M119.204 28.35C118.441 28.35 117.832 28.8778 117.373 29.9317C111.733 42.8252 105.444 49.2685 98.507 49.2685C94.9238 49.2685 93.1325 46.8067 93.1325 41.8837C93.1325 38.93 93.6267 36.2012 94.6194 33.7015C96.4479 33.7015 98.8701 33.1525 101.884 32.0538C104.897 30.9558 107.165 29.8361 108.692 28.6996C114.182 24.5336 116.928 20.3671 116.928 16.2011C116.928 12.5649 114.801 10.7453 110.553 10.7453C105.389 10.7453 100.38 13.6716 95.5232 19.5231C91.8824 23.9163 89.3761 28.2971 88.0035 32.6606C84.5675 39.1927 82.3315 43.0159 81.2923 44.1244C77.6497 48.0873 74.2329 49.8411 71.0461 49.3828L70.2501 49.2685C75.4112 45.7633 78.1056 41.5334 78.3338 36.5788C78.4074 34.4455 77.9534 32.1197 76.9675 29.6051C76.0576 27.396 75.1452 25.2224 74.2347 23.0897C73.2469 20.4987 72.7545 18.1748 72.7545 16.116C72.7545 12.306 74.0448 9.79135 76.6254 8.57225C77.4598 8.19278 78.3338 8.11453 79.2437 8.34308C80.3824 8.80141 81.0665 9.03058 81.2942 9.03058C81.8243 9.03058 82.0909 8.80141 82.0909 8.34308C82.0909 7.42952 81.33 6.78302 79.814 6.39922C78.6759 6.09616 77.5736 6.01976 76.5116 6.17004C73.3985 6.62776 69.6797 10.8471 65.3531 18.8281C62.6945 24.4548 60.002 30.0802 57.2693 35.705C55.8268 35.7795 54.6888 36.693 53.8549 38.4425C53.1708 39.81 52.8306 41.2943 52.8306 42.8885C52.8306 43.0177 52.835 43.145 52.8393 43.2723C50.3323 46.775 48.2417 48.5096 46.5691 48.4692C45.1273 48.3947 44.4067 47.4408 44.4067 45.6112C44.4067 42.488 47.2916 35.1708 53.0607 23.6623C54.805 20.1572 55.679 17.5662 55.679 15.8894C55.679 15.431 55.6036 15.0901 55.4514 14.8609C49.8338 15.395 44.5947 15.5459 39.7398 15.3186C44.0671 12.3463 46.2295 9.10883 46.2295 5.60181C46.2295 4.22992 45.8683 2.95554 45.1483 1.77246C44.4258 0.591858 43.4207 0 42.1304 0C40.4604 0 39.4361 1.18309 39.0556 3.54305C38.1458 8.6505 36.1331 15.2807 33.0205 23.4332C30.461 30.0739 27.8068 35.6776 25.0592 40.2466C20.9268 46.2596 16.4918 49.2685 11.7531 49.2685C8.16992 49.2685 6.37921 46.8067 6.37921 41.8837C6.37921 38.93 6.87344 36.2012 7.86557 33.7015C9.69464 33.7015 12.1168 33.1525 15.1298 32.0538C18.1433 30.9558 20.4115 29.8361 21.9381 28.6996C27.4289 24.5336 30.174 20.3671 30.174 16.2011C30.174 12.5649 28.0474 10.7453 23.7987 10.7453C18.6357 10.7453 13.6267 13.6716 8.76929 19.5231C2.84796 26.6688 -0.074646 33.776 0.00143433 40.8403C0.0756531 44.0338 1.12097 46.6564 3.13312 48.7065C5.14401 50.759 7.74561 51.785 10.9317 51.785C16.3972 51.785 21.0659 49.2834 24.9368 44.2772C25.4329 43.6282 25.9697 42.842 26.5419 41.9172C29.7453 37.1427 32.9655 30.4131 36.2073 21.7178L37.5736 18.0605C43.6446 18.2133 46.6811 19.4728 46.6811 21.8321C46.6811 22.2904 46.5673 22.8245 46.339 23.4332C45.731 24.805 44.5168 27.0544 42.6964 30.1777C41.1018 32.9978 39.9637 35.2472 39.282 36.9222C38.2936 39.5132 37.8013 41.8011 37.8013 43.781C37.8013 45.9161 38.3716 47.7246 39.5097 49.2114C40.6478 50.6975 42.2424 51.4397 44.2929 51.4397C46.9452 51.4397 49.8845 49.4188 53.1071 45.3882C53.5147 47.0843 54.372 48.4562 55.6772 49.5014C57.5736 51.0242 60.0039 51.7831 62.9649 51.7831C64.4828 51.7831 66.0396 51.4397 67.6336 50.7547C69 51.1366 70.2903 51.3273 71.5045 51.3273C77.0435 51.3273 81.7884 47.8606 85.7353 40.9254C86.1027 40.2914 86.4578 39.6616 86.8079 39.0337C86.7701 39.6361 86.7534 40.2379 86.7615 40.8403C86.8357 44.0338 87.881 46.6564 89.8932 48.7065C91.9034 50.759 94.5056 51.785 97.6917 51.785C103.157 51.785 107.826 49.2834 111.697 44.2772C113.669 41.6968 116.252 36.9582 119.439 30.0547C119.667 29.5268 119.781 29.1852 119.781 29.0306C119.781 28.5766 119.591 28.3481 119.21 28.3481L119.204 28.35L119.204 28.35ZM102.354 21.1476C106.682 15.8893 109.906 13.2598 112.033 13.2598C113.247 13.2598 113.855 14.0994 113.855 15.7744C113.855 19.6608 111.785 23.3188 107.651 26.7488C103.512 30.1794 99.4701 31.8929 95.5257 31.8929C97.8019 27.5487 100.081 23.9671 102.357 21.1476L102.354 21.1476L102.354 21.1476ZM15.5987 21.1476C19.926 15.8893 23.1505 13.2598 25.277 13.2598C26.4912 13.2598 27.0993 14.0994 27.0993 15.7744C27.0993 19.6608 25.0296 23.3188 20.8953 26.7488C16.756 30.1794 12.7144 31.8929 8.76932 31.8929C11.0462 27.5487 13.3243 23.9671 15.6011 21.1476L15.5987 21.1476L15.5987 21.1476ZM62.1644 49.841C59.2795 49.841 57.8377 48.3735 57.8377 45.4391C57.8377 43.7834 58.5218 42.278 59.8881 40.9229C60.1158 44.8367 61.6324 47.6593 64.4431 49.387C63.6829 49.6882 62.9246 49.8385 62.1662 49.8385L62.1644 49.841L62.1644 49.841ZM66.3773 48.4696C62.9624 46.7947 61.3684 43.8603 61.596 39.6664C61.7482 37.3039 60.9503 36.0848 59.206 36.0084C59.2926 35.8389 59.3835 35.6631 59.4719 35.4892C60.3169 33.9459 61.176 32.2896 62.0525 30.5215C62.2047 30.216 62.3185 29.9489 62.3945 29.7204C64.4871 25.5345 66.9136 20.5836 69.6798 14.8613L69.6798 17.1468C69.6798 19.1291 70.0219 22.3672 70.7041 26.8642C71.2342 30.9792 71.4624 34.2192 71.3864 36.581C71.082 42.1449 69.412 46.1096 66.3773 48.4696L66.3773 48.4696Z" fill="#000000" fill-rule="evenodd" transform="translate(314.451 149.045)" />
    <path id="Path" d="M21.3268 0.0105591C21.1257 0.0105591 20.9105 0.0148926 20.6823 0.0235901L20.0278 0.0509186C19.8188 0.0596008 19.6369 0.0701599 19.4829 0.0782318C19.3307 0.0869293 19.2379 0.0912933 19.2021 0.0912933C19.0394 0.0912933 18.6887 0.0782318 18.1567 0.0509186C17.6223 0.0235901 17.0755 0.0105591 16.5331 0.0105591C16.3661 0.0105591 15.8551 0.0105591 15.8551 0.309891C15.8551 0.419815 15.9207 0.553345 16.2331 0.553345C16.3766 0.553345 16.5436 0.557678 16.7335 0.566376C16.9172 0.574463 17.0885 0.606125 17.2339 0.653336C17.3625 0.716675 17.4429 0.797424 17.4813 0.89679C17.5233 1.00732 17.5444 1.11105 17.5444 1.21042C17.5444 1.3315 17.5233 1.47993 17.4788 1.65569C17.4343 1.83394 17.3755 2.02458 17.3037 2.22395C17.1936 2.5531 17.0186 3.0723 16.7737 3.78278C16.5349 4.47771 16.2374 5.3006 15.8885 6.22906C15.5403 7.16 15.158 8.1543 14.7591 9.18086C14.3514 10.2304 13.9463 11.2589 13.5467 12.2699C13.1478 13.281 12.7655 14.2399 12.4024 15.141C12.0771 15.9484 11.7919 16.6439 11.5532 17.2122L6.39452 3.39648C6.19409 2.86859 6.02275 2.40466 5.87741 2.00348C5.73576 1.61346 5.66402 1.32965 5.66402 1.15576C5.66402 1.07501 5.68504 0.989944 5.72525 0.901123C5.76299 0.818527 5.84525 0.744003 5.97018 0.680649C6.08833 0.62973 6.24854 0.595566 6.44955 0.576935C6.65616 0.559555 6.83366 0.548996 6.97284 0.548996C7.27902 0.548996 7.32355 0.379456 7.32355 0.277603C7.32355 0.0912933 7.07243 0.00619507 6.50832 0.00619507C5.98254 0.00619507 5.45927 0.0211182 4.95207 0.0465698C4.44733 0.0745239 4.11827 0.0869293 3.97662 0.0869293C3.8857 0.0869293 3.73354 0.0825958 3.51642 0.0745239C3.29869 0.0658264 3.04324 0.0571289 2.75191 0.0465698C2.46057 0.0384979 2.14388 0.0298157 1.79749 0.0192566C1.45296 0.0105591 1.11339 0.00619507 0.78804 0.00619507C0.420609 0.00619507 0 0.0384979 0 0.277603C0 0.449631 0.107635 0.548996 0.298141 0.548996C0.389069 0.548996 0.532562 0.553345 0.731125 0.562042C0.925339 0.570114 1.11957 0.602417 1.31131 0.653336C1.54388 0.725372 1.7511 0.801758 1.92801 0.881866C2.09935 0.958267 2.25583 1.07317 2.39253 1.2191C2.53418 1.37001 2.67149 1.56253 2.80447 1.7917C2.93745 2.02274 3.07726 2.33202 3.22263 2.7121L9.89546 19.4747C10.1534 20.1404 10.3371 20.5813 10.4577 20.8211C10.5882 21.0856 10.7552 21.2198 10.9494 21.2198C11.1121 21.2198 11.26 21.0645 11.4035 20.749C11.5303 20.4671 11.7839 19.9156 12.1661 19.0952C12.4742 18.4207 12.9325 17.3625 13.5282 15.9484C14.1275 14.5262 14.8432 12.8127 15.6795 10.8068C16.024 9.96959 16.3642 9.1492 16.7019 8.34557C17.0378 7.54193 17.3458 6.79544 17.6143 6.12968C17.8969 5.4279 18.1295 4.86586 18.3213 4.40816C18.5198 3.93492 18.6596 3.59396 18.7314 3.39462C18.9107 2.94312 19.0753 2.55931 19.2188 2.2494C19.3623 1.94199 19.4934 1.69173 19.6097 1.5054C19.7235 1.32095 19.8293 1.17873 19.9245 1.08124C20.0192 0.986206 20.1101 0.911682 20.1967 0.858902C20.4398 0.701782 20.6884 0.610489 20.9377 0.58316C21.1975 0.555832 21.3732 0.542786 21.4616 0.542786C21.7975 0.542786 21.8668 0.394348 21.8668 0.271378C21.8668 0 21.4597 0 21.3243 0L21.3268 0.0105591L21.3268 0.0105591Z" fill="#000000" transform="translate(239.032 211.308)" />
    <path id="Shape" d="M18.5074 2.77109C17.5506 1.88487 16.4001 1.19363 15.0887 0.716675C13.7793 0.241592 12.3393 0 10.8121 0C9.55774 0 8.40479 0.160858 7.3848 0.481308C6.36481 0.801147 5.44196 1.24208 4.63971 1.79109C3.83929 2.33821 3.14035 2.98288 2.56573 3.70825C1.9917 4.43114 1.50803 5.19875 1.12576 5.99368C0.7435 6.78862 0.456482 7.60901 0.274628 8.43188C0.0934143 9.25478 0 10.041 0 10.7726C0 12.0153 0.202881 13.2897 0.60434 14.5572C1.00577 15.8273 1.64099 17.0023 2.49829 18.0432C3.35376 19.0865 4.46899 19.9491 5.8075 20.6062C7.14603 21.2657 8.77652 21.5986 10.6495 21.5986C12.2861 21.5986 13.8003 21.2974 15.1475 20.7037C16.4947 20.1106 17.6582 19.2939 18.6064 18.2785C19.5546 17.2631 20.2963 16.0583 20.8152 14.6976C21.3348 13.3363 21.5971 11.8687 21.5971 10.3335C21.5971 8.79892 21.32 7.29352 20.7732 6.0235C20.2264 4.75098 19.4637 3.65732 18.5074 2.76862L18.5074 2.77109L18.5074 2.77109ZM11.3843 20.4031C10.1664 20.4031 9.02399 20.1572 7.98669 19.6715C6.94815 19.1859 6.02713 18.4841 5.24777 17.5848C4.46902 16.6862 3.84985 15.5813 3.41071 14.3032C2.97153 13.0245 2.74762 11.5787 2.74762 10.0075C2.74762 8.52753 2.94803 7.21715 3.34326 6.11044C3.73605 5.00562 4.28903 4.06659 4.98798 3.32196C5.68509 2.57796 6.52322 2.01404 7.47763 1.64702C8.43637 1.27811 9.49469 1.0918 10.6223 1.0918C11.6781 1.0918 12.7105 1.30978 13.6946 1.74017C14.6787 2.17117 15.5595 2.81332 16.3092 3.64864C17.0607 4.48393 17.6755 5.53969 18.1314 6.78241C18.5898 8.02698 18.8223 9.4796 18.8223 11.1036C18.8223 13.0692 18.5452 14.6827 17.9984 15.8974C17.4516 17.1122 16.7799 18.0643 16.003 18.7282C15.2261 19.3914 14.4066 19.8411 13.5684 20.0659C12.7253 20.2907 11.9905 20.405 11.3825 20.405L11.3843 20.4031L11.3843 20.4031Z" fill="#000000" fill-rule="evenodd" transform="translate(261.555 210.933)" />
    <path id="Path" d="M18.3825 16.1012C18.127 16.1012 18.0553 16.4576 18.0324 16.5806C17.9965 16.8309 17.8926 17.1973 17.7237 17.6724C17.5549 18.1431 17.3266 18.5332 17.0458 18.8344C16.5139 19.3859 15.8551 19.7504 15.0844 19.92C14.305 20.0914 13.3908 20.1783 12.364 20.1783C10.9284 20.1783 9.59793 19.9007 8.40723 19.3517C7.21405 18.8027 6.17676 18.0624 5.32565 17.1551C4.47269 16.2452 3.80157 15.1833 3.3259 13.994C2.85086 12.8065 2.61023 11.547 2.61023 10.2497C2.61023 8.85857 2.76859 7.55437 3.08344 6.37376C3.39578 5.19876 4.05267 4.12186 5.03677 3.16792C5.26688 2.93692 5.55637 2.69907 5.89594 2.46617C6.23615 2.23265 6.65613 2.02087 7.14603 1.83206C7.6384 1.64328 8.2229 1.48865 8.88846 1.37187C9.55154 1.25513 10.3457 1.19612 11.2451 1.19612C12.4296 1.19612 13.5213 1.35075 14.4906 1.65631C15.4561 1.96124 16.1805 2.32394 16.6425 2.73506C16.9932 3.03629 17.2697 3.43933 17.4639 3.93555C17.6581 4.43549 17.7578 4.9491 17.7578 5.46643C17.7578 5.62727 17.7578 6.11914 18.0553 6.11914C18.3534 6.11914 18.372 5.62914 18.3806 5.46643C18.3806 5.35773 18.3849 5.19502 18.393 4.97643C18.4017 4.7578 18.406 4.50752 18.406 4.23427C18.406 3.96101 18.4103 3.67656 18.4183 3.40331C18.427 3.12321 18.4418 2.87108 18.4586 2.65495C18.4944 2.1693 18.526 1.81531 18.5538 1.60725C18.581 1.39549 18.5959 1.23216 18.5959 1.11725C18.5959 1.00298 18.5662 0.918518 18.5049 0.85704C18.4462 0.797424 18.3404 0.758911 18.1697 0.737793C17.7367 0.701782 17.2951 0.647125 16.8541 0.574463C16.4081 0.502411 15.9225 0.419815 15.3986 0.328522C14.725 0.201828 14.0261 0.112411 13.3191 0.0682983C12.609 0.0235901 11.9756 0 11.435 0C10.3835 0 9.42041 0.0788574 8.57361 0.233521C7.72931 0.388153 6.95862 0.596191 6.28687 0.852676C5.61081 1.10918 5.00092 1.42468 4.47269 1.7917C3.94507 2.15874 3.47186 2.54628 3.07291 2.94933C2.47107 3.5536 1.96201 4.20882 1.56305 4.89383C1.16162 5.57883 0.84494 6.26321 0.616669 6.93146C0.389069 7.59908 0.228241 8.24808 0.137299 8.85857C0.0463867 9.46906 0 10.0118 0 10.4702C0 11.1272 0.0506897 11.8166 0.150299 12.5184C0.249268 13.2201 0.424927 13.93 0.671722 14.6256C0.918518 15.3211 1.25873 16.0167 1.68738 16.693C2.11417 17.3693 2.66528 18.0183 3.32217 18.6245C4.41391 19.6125 5.6937 20.3628 7.12067 20.8552C8.54825 21.349 10.3117 21.5968 12.3622 21.5968C12.7995 21.5968 13.2535 21.5825 13.7156 21.5546C14.1739 21.5272 14.6279 21.4912 15.0671 21.4446C15.5062 21.398 15.9207 21.3341 16.3005 21.2515C16.6852 21.1689 17.0186 21.0714 17.2951 20.959C17.5635 20.8422 17.7299 20.7404 17.8041 20.6472C17.874 20.5584 17.9538 20.3845 18.0491 20.1168C18.1227 19.8777 18.1969 19.566 18.2686 19.1927C18.3423 18.8151 18.406 18.4419 18.461 18.0817C18.5155 17.7171 18.56 17.3923 18.5984 17.1085C18.6466 16.7228 18.6528 16.6291 18.6528 16.593C18.6528 16.4769 18.6379 16.3707 18.6089 16.2819C18.5581 16.1266 18.4462 16.1036 18.3825 16.1036L18.3825 16.1012L18.3825 16.1012Z" fill="#000000" transform="translate(286.48 210.94)" />
    <path id="Shape" d="M20.5617 20.6749C20.4182 20.6749 20.2512 20.6662 20.0656 20.6469C19.8837 20.6301 19.692 20.5854 19.491 20.5115C19.3518 20.4774 19.1978 20.414 19.0326 20.3271C18.8699 20.242 18.6949 20.0917 18.5112 19.8793C18.3232 19.6657 18.1165 19.3645 17.8926 18.9893C17.6687 18.6118 17.4361 18.1199 17.2042 17.5237L16.1818 14.9265C15.7722 13.8838 15.3418 12.7746 14.9026 11.6319C14.4566 10.4742 14.0069 9.30359 13.5548 8.11862C13.0884 6.89952 12.6826 5.8307 12.3152 4.85132C11.9435 3.85703 11.6249 3.01924 11.3608 2.33423C11.0967 1.64986 10.9303 1.21698 10.8561 1.035C10.6897 0.608368 10.5709 0.341324 10.4948 0.213989C10.3179 -0.0741577 10.0408 -0.0741577 9.86765 0.2314C9.79404 0.362427 9.6759 0.653076 9.50888 1.11948L3.32593 18.1025C3.0748 18.7856 2.78964 19.3645 2.47665 19.8222C2.17294 20.2656 1.7103 20.5345 1.1004 20.6239C0.994629 20.6407 0.859161 20.6556 0.700836 20.6643C0.540619 20.6724 0.413818 20.6767 0.325348 20.6767C0.0420837 20.6767 0 20.8295 0 20.9208C0 21.1177 0.200409 21.2195 0.597504 21.2195C0.922882 21.2195 1.25443 21.2152 1.57916 21.2071C1.90698 21.1984 2.21503 21.1878 2.50635 21.1791C2.79767 21.1711 3.04697 21.1599 3.25601 21.1518C3.46323 21.1431 3.60242 21.1388 3.67416 21.1388C3.74591 21.1388 3.86652 21.1431 4.03723 21.1518C4.21045 21.1599 4.39661 21.1711 4.59702 21.1791L5.22424 21.2071C5.44382 21.2152 5.63617 21.2195 5.79886 21.2195C6.20215 21.2195 6.28629 21.0587 6.28629 20.9208C6.28629 20.8295 6.23987 20.6767 5.93372 20.6767L5.66153 20.6767C5.43948 20.6767 5.21991 20.6152 5.00464 20.4966C4.80176 20.3842 4.70465 20.2103 4.70465 19.9644C4.70465 19.4638 4.83145 18.8577 5.08258 18.1578L6.71494 13.3192C6.76996 13.1689 6.85471 13.1522 6.91348 13.1522L12.7692 13.1522C12.8478 13.1522 12.9023 13.1901 12.9406 13.2646L15.4748 19.9942C15.557 20.1911 15.5737 20.3395 15.5292 20.4351C15.4853 20.5345 15.4259 20.5985 15.3628 20.6239C15.1581 20.6829 15.1154 20.8015 15.1154 20.891C15.1154 20.9692 15.1537 21.1052 15.4067 21.1201C15.5527 21.1282 15.7512 21.1431 16.0085 21.1599C16.4818 21.1773 16.9506 21.1922 17.4133 21.2003C17.8778 21.209 18.304 21.2133 18.6949 21.2133L20.287 21.2133C20.4392 21.2133 20.5722 21.1984 20.6884 21.1711C20.8827 21.122 20.9124 20.9904 20.9124 20.9164C20.9124 20.8251 20.866 20.6724 20.5598 20.6724L20.5617 20.6749L20.5617 20.6749ZM12.4568 11.9985C12.4568 11.9985 12.4482 12.0072 12.4166 12.0072L7.2153 12.0072C7.19858 12.0072 7.19055 12.0072 7.18622 12.0072C7.18622 12.0072 7.18622 11.9755 7.20911 11.9227L9.60596 4.53792C9.67584 4.31744 9.72656 4.29385 9.72656 4.29199C9.72845 4.29199 9.78348 4.31496 9.86389 4.53978L12.4507 11.9184C12.4655 11.973 12.4612 11.9966 12.4568 12.001L12.4568 11.9985L12.4568 11.9985Z" fill="#000000" fill-rule="evenodd" transform="translate(305.928 210.935)" />
    <path id="Path" d="M12.854 16.8724C12.6833 16.8724 12.5731 17.0146 12.5311 17.2966C12.4952 17.5425 12.4148 17.8226 12.2905 18.1257C12.1655 18.4269 12.0158 18.6877 11.8383 18.8995C11.5259 19.2833 11.0911 19.5125 10.5418 19.5827C9.97586 19.6547 9.32578 19.6907 8.60519 19.6907C8.08374 19.6907 7.6322 19.6777 7.2623 19.6504C6.8949 19.6224 6.58688 19.5864 6.34378 19.5423C6.10938 19.4994 5.91513 19.4361 5.7673 19.3578C5.62134 19.279 5.49512 19.1883 5.38937 19.0821C5.1506 18.8616 4.99411 18.2723 4.92484 17.3283C4.85309 16.3681 4.8172 14.8714 4.8172 12.876L4.8172 3.78214C4.8172 3.37535 4.82092 3.04433 4.82959 2.80089C4.83823 2.55681 4.85309 2.32332 4.86978 2.10718C4.90567 1.64699 4.98792 1.29549 5.11908 1.0601C5.24155 0.837158 5.49512 0.688721 5.87057 0.621048C6.02896 0.585007 6.19409 0.563904 6.36295 0.555206C6.53366 0.546494 6.66232 0.542786 6.75323 0.542786C7.0217 0.542786 7.05139 0.37323 7.05139 0.298706C7.05139 0.16333 6.96231 0 6.53616 0C6.33514 0 6.07532 0.00370789 5.75681 0.0124207L4.8172 0.0403442C4.50858 0.0484314 4.23642 0.0589752 3.99951 0.0676727C3.76508 0.0763855 3.63022 0.0801086 3.59433 0.0801086C3.55847 0.0801086 3.436 0.0763855 3.22879 0.0676727C3.01971 0.0589752 2.76428 0.0509033 2.46429 0.0403442C2.16492 0.0316772 1.8414 0.0229645 1.49747 0.0124207C1.15109 0.00370789 0.823883 0 0.515259 0C0.173187 0 0 0.09935 0 0.298706C0 0.37323 0.0296631 0.542786 0.298126 0.542786C0.424316 0.542786 0.58078 0.546494 0.770691 0.555206C0.952545 0.563904 1.09854 0.585007 1.20801 0.621048C1.63666 0.707977 1.92181 0.860748 2.05478 1.07687C2.19214 1.30168 2.28058 1.64948 2.31461 2.10718C2.33127 2.32332 2.34613 2.55681 2.3548 2.80089C2.36343 3.04433 2.36716 3.37535 2.36716 3.78214L2.36716 12.8208C2.36716 14.1268 2.36343 15.3099 2.3548 16.334C2.34613 17.3562 2.30408 18.1679 2.23233 18.7449C2.17975 19.1374 2.10367 19.4721 2.00409 19.7392C1.91312 19.9876 1.7486 20.1317 1.49747 20.1826C1.375 20.2186 1.24203 20.2441 1.10037 20.2627C0.961243 20.2801 0.825745 20.2906 0.701416 20.2906C0.432983 20.2906 0.40329 20.4602 0.40329 20.5341C0.40329 20.7316 0.576477 20.8334 0.918518 20.8334C1.11957 20.8334 1.36017 20.8291 1.64285 20.8204C1.92368 20.8123 2.20511 20.7974 2.47107 20.78C2.74326 20.78 2.98633 20.7763 3.1954 20.7676C3.40201 20.7589 3.53311 20.7552 3.58569 20.7552C3.99332 20.7552 4.41391 20.7589 4.83578 20.7676C5.27307 20.7763 5.78647 20.7993 6.36047 20.8353C6.94128 20.8527 7.5957 20.8713 8.32248 20.8906C9.06354 20.9098 9.92514 20.9179 10.8839 20.9179C11.2433 20.9179 11.5346 20.9098 11.7498 20.8906C11.9713 20.8713 12.1364 20.8334 12.2546 20.772C12.3727 20.7105 12.468 20.6235 12.5206 20.5173C12.567 20.4217 12.6195 20.2882 12.6746 20.1211C12.7296 19.9174 12.7804 19.6715 12.8268 19.387C12.8713 19.1051 12.9177 18.8275 12.9641 18.5542C13.0086 18.2803 13.042 18.0301 13.0612 17.8096C13.0804 17.5742 13.0884 17.4388 13.0884 17.3668C13.0884 17.2457 13.0884 16.8768 12.8459 16.8768L12.854 16.8724L12.854 16.8724Z" fill="#000000" transform="translate(328.208 211.319)" />
    <path id="Path" d="M9.85153 12.7146C9.54965 12.2103 9.13339 11.6762 8.61627 11.1291C8.10104 10.5838 7.43362 9.98386 6.63324 9.34357L5.87057 8.74178C5.22049 8.23502 4.67743 7.77669 4.25558 7.37798C3.83496 6.98361 3.49539 6.61098 3.24362 6.26694C2.99683 5.93031 2.82181 5.59309 2.72406 5.26642C2.62695 4.9379 2.5787 4.58389 2.5787 4.20818C2.5787 3.235 2.89539 2.46802 3.51825 1.93143C4.14545 1.3905 4.92917 1.11725 5.84952 1.11725C6.45572 1.11725 6.97095 1.17624 7.38043 1.29114C7.79053 1.40727 8.1264 1.54764 8.38184 1.70662C8.6373 1.8656 8.82721 2.0246 8.94781 2.17923C9.09937 2.37672 9.16061 2.47424 9.18842 2.5295C9.27255 2.66676 9.3486 2.8835 9.40985 3.17351C9.47357 3.47285 9.51379 3.70389 9.53235 3.86722C9.55148 3.97714 9.57068 4.06844 9.58926 4.13614C9.60657 4.19389 9.65912 4.28891 9.83047 4.28891C10.0711 4.28891 10.1008 3.88399 10.1008 3.58092C10.1008 2.65433 10.1193 1.95255 10.1552 1.49423C10.1935 1.01291 10.2102 0.754562 10.2102 0.682526C10.2102 0.580673 10.1639 0.411118 9.8577 0.411118C9.75192 0.411118 9.6319 0.40242 9.50079 0.383789C9.3678 0.366409 9.17358 0.330383 8.92432 0.275116C8.57791 0.184448 8.19382 0.114273 7.78186 0.0677032C7.3699 0.0229645 6.89487 0 6.37158 0C5.49512 0 4.69907 0.120483 4.00378 0.360199C3.30734 0.59993 2.70303 0.945221 2.20694 1.38864C1.71088 1.83394 1.32245 2.36803 1.05585 2.97665C0.789856 3.58714 0.654999 4.26967 0.654999 5.00745C0.654999 5.48689 0.70575 5.95764 0.80719 6.40915C0.90799 6.86064 1.09418 7.33823 1.36017 7.82573C1.62613 8.31326 1.9917 8.82004 2.44571 9.33301C2.89972 9.84412 3.49722 10.408 4.22586 11.0123L5.45059 12.0258C6.02704 12.5158 6.52127 12.9605 6.91589 13.3512C7.31116 13.7387 7.63217 14.1206 7.87277 14.4877C8.11154 14.8522 8.28659 15.2317 8.39423 15.6155C8.5 15.9993 8.55505 16.4296 8.55505 16.8936C8.55505 17.3202 8.47464 17.7525 8.31381 18.181C8.15549 18.607 7.91733 18.989 7.60867 19.3175C7.29819 19.646 6.8992 19.9218 6.42166 20.1335C5.94479 20.3478 5.37881 20.4559 4.73865 20.4559C4.29327 20.4559 3.84979 20.4049 3.42117 20.3074C2.99496 20.2099 2.5954 20.0509 2.23233 19.8392C1.87106 19.6268 1.56305 19.3448 1.31812 18.9995C1.07068 18.6561 0.893799 18.2276 0.785522 17.7314C0.749664 17.5345 0.726776 17.35 0.71814 17.1799C0.710083 17.0085 0.70575 16.86 0.70575 16.7327C0.70575 16.4017 0.536896 16.3533 0.435455 16.3533C0.259766 16.3533 0.158325 16.5247 0.137299 16.8644C0.118744 17.0824 0.0909119 17.4475 0.0550537 17.958C0.019165 18.463 0 19.0716 0 19.769C0 20.1466 0.019165 20.39 0.0574951 20.5155C0.10144 20.6571 0.230713 20.7738 0.45401 20.8738C1.01996 21.1409 1.62427 21.3315 2.2453 21.4396C2.86569 21.5458 3.50159 21.6011 4.13681 21.6011C4.88461 21.6011 5.62378 21.5116 6.33572 21.3378C7.05136 21.162 7.71011 20.8589 8.29526 20.4366C8.77216 20.1037 9.16739 19.7268 9.47113 19.3107C9.77356 18.8977 10.0142 18.4735 10.1892 18.0493C10.3624 17.6277 10.483 17.2159 10.548 16.8284C10.6117 16.4421 10.6451 16.1049 10.6451 15.8316C10.6451 15.2826 10.5907 14.746 10.4806 14.2417C10.3711 13.735 10.162 13.2195 9.8577 12.7127L9.85153 12.7146L9.85153 12.7146Z" fill="#000000" transform="translate(353.409 210.933)" />
    <path id="Path" d="M17.2104 0.191284C17.1492 0.191284 17.054 0.206192 16.9209 0.233521C16.7941 0.260849 16.6314 0.293137 16.4354 0.329147C16.2238 0.365173 15.956 0.396851 15.6368 0.424179C15.3226 0.452118 14.9447 0.464554 14.5136 0.464554L4.29889 0.464554C4.1387 0.464554 3.83685 0.452118 3.40573 0.424179C2.96472 0.396851 2.5441 0.365173 2.15567 0.329147C1.80307 0.293137 1.5433 0.231659 1.38062 0.146561C1.19504 0.0490723 1.05338 0 0.950104 0C0.812775 0 0.747223 0.185074 0.726166 0.24408C0.681671 0.371384 0.639587 0.479446 0.603699 0.572601C0.584534 0.629745 0.544312 0.788712 0.479401 1.07315C0.415649 1.34642 0.345795 1.64763 0.274048 1.97617C0.200439 2.30531 0.136719 2.61272 0.0822754 2.89468C0.0272217 3.18469 0 3.36543 0 3.44368C0 3.72749 0.134857 3.77036 0.215271 3.77036C0.358765 3.77036 0.475037 3.66165 0.561646 3.44554C0.595062 3.35858 0.645752 3.25488 0.707001 3.14061C0.770721 3.02136 0.875885 2.84375 1.01566 2.61458C1.11896 2.45746 1.24142 2.32642 1.37875 2.22458C1.51358 2.12273 1.68927 2.03764 1.89835 1.97617C2.10925 1.91467 2.36719 1.86375 2.66287 1.82773C2.96036 1.79172 3.31729 1.77493 3.72925 1.77493L7.67987 1.72215L7.67987 13.2095C7.67987 14.5156 7.67618 15.6987 7.66748 16.7228C7.65884 17.7444 7.61679 18.5567 7.54501 19.1337C7.49182 19.5255 7.41638 19.8609 7.3168 20.128C7.22586 20.3757 7.06317 20.5198 6.81018 20.5708C6.68771 20.6068 6.55475 20.6322 6.41312 20.6515C6.2739 20.6683 6.13846 20.6788 6.01413 20.6788C5.74567 20.6788 5.716 20.849 5.716 20.9229C5.716 21.1204 5.88916 21.2216 6.23126 21.2216C6.43228 21.2216 6.67722 21.2179 6.96857 21.2092L7.81287 21.1819C8.08563 21.1732 8.32623 21.1626 8.53531 21.1539C8.74255 21.1452 8.86252 21.1415 8.89844 21.1415C8.9343 21.1415 9.0549 21.1452 9.26151 21.1539C9.47058 21.1626 9.73468 21.1707 10.0539 21.1819C10.3706 21.1899 10.7213 21.1986 11.1029 21.2092C11.4833 21.2179 11.8699 21.2216 12.2497 21.2216C12.5918 21.2216 12.7649 21.1223 12.7649 20.9229C12.7649 20.849 12.7359 20.6788 12.4674 20.6788C12.3406 20.6788 12.155 20.6707 11.9138 20.6515C11.6732 20.6347 11.4518 20.6068 11.2507 20.5708C10.858 20.5198 10.6112 20.3739 10.4949 20.1236C10.3724 19.8609 10.292 19.528 10.2561 19.1355C10.1844 18.5586 10.1423 17.7469 10.1336 16.7246C10.1256 15.7304 10.1213 14.5814 10.1213 13.2114L10.1213 1.72401L13.4725 1.77679C14.1208 1.79605 14.6614 1.84512 15.0814 1.92523C15.4977 2.00597 15.8292 2.10968 16.068 2.23265C16.2981 2.35376 16.4669 2.50032 16.5684 2.66739C16.6698 2.83691 16.731 3.0195 16.7478 3.20831L16.775 3.50951C16.8003 3.79146 16.83 3.88028 16.8511 3.92065C16.8807 3.97777 16.942 4.04547 17.0706 4.04547C17.1931 4.04547 17.3409 3.9697 17.3409 3.61136C17.3409 3.5387 17.3453 3.37971 17.3539 3.13628C17.3626 2.89032 17.3706 2.61272 17.3811 2.30096L17.409 1.37001C17.417 1.06075 17.4214 0.803635 17.4214 0.602417C17.4214 0.509262 17.417 0.426666 17.4065 0.358337C17.3916 0.257111 17.3156 0.195633 17.2061 0.195633L17.2104 0.191284L17.2104 0.191284Z" fill="#000000" transform="translate(366.912 210.934)" />
    <path id="Path" d="M20.0786 0.00869751C19.8776 0.00869751 19.6537 0.0124207 19.4087 0.0211182L18.7017 0.0484467C18.4734 0.0571289 18.2793 0.0676727 18.1147 0.0763855C17.9539 0.085083 17.8463 0.0888062 17.7912 0.0888062C17.7554 0.0888062 17.6434 0.085083 17.4553 0.0763855C17.2655 0.0676727 17.0335 0.0596008 16.7607 0.0484467C16.4886 0.0403748 16.1886 0.0316772 15.8614 0.0211182C15.536 0.0124207 15.2131 0.00869751 14.9045 0.00869751C14.5624 0.00869751 14.3892 0.108047 14.3892 0.307419C14.3892 0.381927 14.4189 0.551483 14.6873 0.551483C14.8135 0.551483 14.9701 0.555206 15.1599 0.563904C15.3436 0.572601 15.4878 0.593719 15.5973 0.629745C16.0259 0.716675 16.311 0.869461 16.444 1.08557C16.5814 1.31039 16.6698 1.65817 16.7038 2.11588C16.7205 2.33202 16.7354 2.56552 16.744 2.80959C16.7527 3.05304 16.7564 3.38406 16.7564 3.79085L16.7564 11.4346C16.7564 12.8469 16.6512 14.1293 16.444 15.2491C16.2393 16.3601 15.8168 17.314 15.1921 18.0835C14.7102 18.6561 14.0855 19.1269 13.3333 19.4852C12.5837 19.8435 11.7876 20.0237 10.9662 20.0237C10.1936 20.0237 9.47983 19.9324 8.84393 19.7522C8.2124 19.574 7.55801 19.1672 6.89679 18.5394C6.61166 18.2704 6.33948 17.9481 6.08835 17.5811C5.83908 17.2165 5.62134 16.7669 5.44196 16.2452C5.26257 15.726 5.12094 15.1006 5.02197 14.3883C4.92239 13.6778 4.87164 12.8214 4.87164 11.8414L4.87164 3.78648C4.87164 3.36293 4.87598 3.04248 4.88464 2.80525C4.89267 2.56117 4.90756 2.32828 4.92484 2.11154C4.96075 1.65198 5.043 1.29364 5.17352 1.04956C5.29846 0.81604 5.5242 0.676315 5.87061 0.625381C6.02896 0.589371 6.1601 0.568237 6.25473 0.557678C6.35184 0.548996 6.44522 0.544647 6.53369 0.544647C6.80215 0.544647 6.83121 0.375107 6.83121 0.301193C6.83121 0.165192 6.74277 0.00186157 6.31598 0.00186157C6.11557 0.00186157 5.87494 0.00619507 5.59164 0.0148926L4.76407 0.0422211C4.49374 0.0509186 4.25125 0.0614777 4.03354 0.0701752C3.82016 0.0782623 3.68713 0.0825958 3.63211 0.0825958C3.57706 0.0825958 3.44037 0.0782623 3.21829 0.0701752C2.99252 0.0614777 2.73273 0.0527802 2.43457 0.0422211C2.13708 0.0341492 1.82037 0.0254517 1.48453 0.0148926C1.14862 0.00619507 0.825775 0.00186157 0.515259 0.00186157C0.173187 0.00186157 0 0.101852 0 0.301193C0 0.375107 0.0296631 0.544647 0.298126 0.544647C0.424316 0.544647 0.580841 0.548996 0.770691 0.557678C0.954407 0.566376 1.09793 0.587494 1.20801 0.62352C1.63666 0.710464 1.92181 0.862625 2.05481 1.07938C2.19214 1.3042 2.28058 1.65198 2.31644 2.10968C2.33377 2.32581 2.3486 2.55931 2.35666 2.80276C2.3653 3.05304 2.36963 3.38406 2.36963 3.78462L2.36963 12.0029C2.36963 13.0059 2.42844 13.8921 2.54471 14.6405C2.66098 15.3888 2.82986 16.0608 3.04758 16.6396C3.26285 17.2165 3.52014 17.719 3.81146 18.1344C4.10095 18.5456 4.41147 18.9232 4.73868 19.2542C5.23291 19.7137 5.7692 20.0808 6.32712 20.3478C6.88193 20.613 7.43304 20.8124 7.96564 20.9415C8.49573 21.0688 8.98315 21.1496 9.4118 21.1769C9.83859 21.2049 10.1744 21.2191 10.4132 21.2191C10.8103 21.2191 11.2451 21.1962 11.7035 21.1496C12.1594 21.103 12.6344 21.0055 13.1094 20.8589C13.5845 20.713 14.0812 20.5049 14.5835 20.2379C15.0863 19.9727 15.5929 19.6144 16.0871 19.1734C16.6364 18.6772 17.0842 18.1046 17.4158 17.4687C17.7448 16.8371 18.0046 16.1521 18.1865 15.4267C18.3677 14.7038 18.4883 13.9554 18.5434 13.1984C18.5978 12.4395 18.6256 11.6781 18.6256 10.9359L18.6256 3.78462C18.6256 3.36667 18.63 3.04436 18.638 2.80276C18.6467 2.55931 18.6615 2.32581 18.6782 2.10968C18.7141 1.64949 18.7964 1.3042 18.9275 1.07687C19.0518 0.860764 19.2887 0.707977 19.6246 0.62352C19.7848 0.587494 19.9134 0.566376 20.0087 0.555206C20.1058 0.547119 20.1986 0.542786 20.2877 0.542786C20.5555 0.542786 20.5852 0.37323 20.5852 0.298706C20.5852 0.16333 20.4968 0 20.0699 0L20.0786 0.00869751L20.0786 0.00869751Z" fill="#000000" transform="translate(385.942 211.31)" />
    <path id="Shape" d="M20.1057 5.93839C19.8608 5.36394 19.5738 4.83792 19.2528 4.38022C18.9361 3.92436 18.5984 3.50888 18.2495 3.13998C17.4281 2.29784 16.5139 1.65382 15.5279 1.22282C14.5457 0.794937 13.5405 0.485031 12.5416 0.300583C11.5426 0.118622 10.5715 0.0211182 9.65485 0.0124207C8.73877 0.00370789 7.94272 0 7.27097 0C6.85471 0 6.44092 0.00370789 6.04379 0.0124207C5.64484 0.0211182 5.2774 0.0316772 4.9397 0.0397491C4.60382 0.0484467 4.31247 0.0590057 4.06754 0.0677032C3.82443 0.0757751 3.66611 0.0801086 3.59436 0.0801086C3.55847 0.0801086 3.436 0.0757751 3.22882 0.0677032C3.01974 0.0590057 2.76425 0.0509186 2.46487 0.0397491C2.16489 0.0316772 1.8414 0.0229645 1.4975 0.0124207C1.15112 0.00370789 0.823914 0 0.515259 0C0.173218 0 0 0.0993652 0 0.298706C0 0.372635 0.0297241 0.542786 0.298126 0.542786C0.424957 0.542786 0.580841 0.546524 0.771332 0.555206C0.955048 0.563904 1.09854 0.585007 1.20801 0.621048C1.63666 0.707977 1.92181 0.860748 2.05481 1.07689C2.19211 1.30171 2.28119 1.64949 2.31458 2.10968C2.33191 2.32332 2.34616 2.55869 2.3548 2.80276C2.36343 3.05302 2.3678 3.38344 2.3678 3.78462L2.3678 12.8233C2.3678 14.1057 2.36343 15.2888 2.3548 16.3365C2.34616 17.3606 2.30411 18.1704 2.23233 18.7468C2.17975 19.1393 2.10367 19.474 2.00406 19.7417C1.91376 19.9895 1.7511 20.1335 1.4975 20.1845C1.37503 20.2205 1.24203 20.246 1.10037 20.2652C0.961212 20.282 0.825775 20.2925 0.701447 20.2925C0.432983 20.2925 0.403931 20.4621 0.403931 20.5366C0.403931 20.7335 0.576477 20.8353 0.919159 20.8353C1.11957 20.8353 1.3602 20.8266 1.66019 20.808C1.94717 20.7906 2.23047 20.78 2.50449 20.78C2.79211 20.7633 3.03708 20.7527 3.2356 20.7527L3.59003 20.7527C3.63889 20.7527 3.80591 20.7614 4.31866 20.808C4.73062 20.844 5.22919 20.88 5.84525 20.9179C6.42606 20.9539 7.05759 20.99 7.73984 21.0285C8.42209 21.0645 9.06168 21.0837 9.63629 21.0837C10.7973 21.0837 11.8383 20.9775 12.7321 20.7676C13.6228 20.5577 14.4151 20.2882 15.0906 19.9683C15.7642 19.6479 16.3431 19.3001 16.8077 18.9337C17.2722 18.5691 17.6544 18.2251 17.9458 17.9139C18.328 17.5128 18.7016 17.0401 19.0567 16.5079C19.4111 15.9781 19.7303 15.3801 20.0024 14.7311C20.2746 14.0827 20.4967 13.3636 20.6612 12.5984C20.8263 11.8308 20.9086 11.0061 20.9086 10.1472C20.9086 9.2883 20.8344 8.55733 20.689 7.86176C20.5431 7.1662 20.3445 6.52156 20.0995 5.94461L20.1057 5.93839L20.1057 5.93839ZM6.86331 1.08545C7.67233 1.08545 8.48077 1.11713 9.26636 1.18048C10.0476 1.24445 10.8164 1.38603 11.5512 1.60278C12.2861 1.81889 13.0129 2.13252 13.7137 2.53745C14.4108 2.94238 15.0844 3.48517 15.7115 4.15091C15.9794 4.43721 16.2689 4.79803 16.5775 5.22408C16.8812 5.64577 17.1664 6.14633 17.428 6.71457C17.6878 7.28282 17.9012 7.92497 18.0639 8.62675C18.2241 9.32854 18.3069 10.1241 18.3069 10.9886C18.3069 11.6183 18.2599 12.2505 18.1715 12.8629C18.0806 13.4777 17.9414 14.0758 17.7534 14.6397C17.5653 15.2061 17.3334 15.7402 17.0649 16.2258C16.7971 16.709 16.4909 17.127 16.1526 17.466C15.3485 18.274 14.3811 18.9038 13.2788 19.336C12.1766 19.7689 10.9809 19.9875 9.72656 19.9875C8.93295 19.9875 8.25256 19.9552 7.70575 19.8918C7.16083 19.8304 6.70682 19.7434 6.35858 19.6353C6.01221 19.5291 5.74435 19.4124 5.56253 19.2894C5.38068 19.1689 5.24582 19.046 5.15921 18.9249C5.11035 18.8615 5.07074 18.7535 5.03674 18.6007C5.00089 18.4417 4.97305 18.2591 4.95633 18.0641C4.93713 17.8647 4.92047 17.6592 4.90128 17.4493C4.88458 17.2456 4.87405 17.0593 4.87405 16.8959C4.87405 16.7686 4.86972 16.5208 4.86169 16.1557C4.85303 15.7911 4.84253 15.3458 4.83386 14.8161C4.8252 14.2944 4.82147 13.7131 4.82147 13.0393L4.82147 4.21861C4.82147 3.67395 4.8252 3.18208 4.83386 2.75793C4.84253 2.31946 4.84683 1.98224 4.84683 1.74438C4.84683 1.50714 4.93713 1.35001 5.11899 1.27364C5.15488 1.26122 5.23282 1.2401 5.39551 1.20842C5.52847 1.18048 5.68683 1.15936 5.86435 1.14011C6.04373 1.12334 6.22122 1.10844 6.39261 1.09975C6.56332 1.09166 6.71979 1.08733 6.86514 1.08733L6.86331 1.08545L6.86331 1.08545Z" fill="#000000" fill-rule="evenodd" transform="translate(410.134 211.321)" />
    <path id="Path" d="M6.83551 20.2907C6.70932 20.2907 6.52316 20.282 6.2825 20.2627C6.04193 20.246 5.81985 20.2186 5.61948 20.1826C5.22668 20.1317 4.97925 19.9851 4.86359 19.7348C4.74112 19.4721 4.66071 19.1393 4.62482 18.7468C4.5531 18.1704 4.51105 17.3581 4.50235 16.3365C4.49371 15.3205 4.48938 14.1716 4.48938 12.8233L4.48938 3.78462C4.48938 3.36667 4.49371 3.04434 4.50235 2.80276C4.51105 2.55869 4.52524 2.32581 4.54257 2.10966C4.57843 1.64948 4.66071 1.29735 4.79184 1.06198C4.91617 0.835281 5.14441 0.691208 5.48831 0.622894C5.6467 0.586868 5.7778 0.56575 5.87305 0.555206C5.97015 0.546509 6.06296 0.542786 6.1514 0.542786C6.41986 0.542786 6.44952 0.37323 6.44952 0.298706C6.44952 0.16333 6.36047 0 5.9343 0C5.73325 0 5.48831 0.00370789 5.19696 0.0124207L4.35266 0.0403442C4.0799 0.0484314 3.83929 0.0589752 3.63022 0.0676727C3.423 0.0763855 3.30054 0.0801086 3.26712 0.0801086C3.23312 0.0801086 3.1088 0.0763855 2.90155 0.0676727C2.69254 0.0589752 2.4519 0.0509033 2.17914 0.0403442C1.90698 0.0316772 1.61563 0.0229645 1.30698 0.0124207C0.997101 0.00370789 0.732971 0 0.515259 0C0.173218 0 0 0.09935 0 0.298706C0 0.37323 0.0296631 0.542786 0.298126 0.542786C0.384735 0.542786 0.509064 0.550858 0.669281 0.570114C0.827606 0.586868 0.979767 0.614822 1.12326 0.650833C1.65335 0.771317 1.93417 1.2489 1.9874 2.11154C2.00406 2.32581 2.01889 2.56117 2.02759 2.80463C2.03564 3.05489 2.03995 3.38593 2.03995 3.78648L2.03995 12.8251C2.03995 14.1082 2.03564 15.2913 2.02759 16.3384C2.01889 17.3625 1.97684 18.1723 1.90512 18.7492C1.85193 19.1411 1.77585 19.4765 1.67688 19.7435C1.58597 19.9913 1.42328 20.136 1.17029 20.187C1.04782 20.223 0.914215 20.2484 0.773163 20.2671C0.633392 20.2845 0.498566 20.295 0.373596 20.295C0.105774 20.295 0.0760803 20.4646 0.0760803 20.5385C0.0760803 20.736 0.249268 20.8378 0.591309 20.8378C0.791748 20.8378 1.03668 20.8335 1.32864 20.8248L2.17294 20.7974C2.44571 20.7888 2.68634 20.7782 2.89542 20.7695C3.10199 20.7614 3.22263 20.7571 3.25848 20.7571C3.29434 20.7571 3.41681 20.7614 3.62155 20.7695C3.83063 20.7782 4.09476 20.7869 4.41391 20.7974C4.73062 20.8055 5.08069 20.8142 5.46298 20.8248C5.84338 20.8335 6.22995 20.8378 6.60971 20.8378C6.95178 20.8378 7.12497 20.7378 7.12497 20.5385C7.12497 20.4646 7.09531 20.295 6.82748 20.295L6.83551 20.2907L6.83551 20.2907Z" fill="#000000" transform="translate(435.167 211.319)" />
    <path id="Shape" d="M20.775 6.02534C20.2282 4.75345 19.4655 3.65918 18.5093 2.77109C17.5524 1.88487 16.4019 1.19363 15.0906 0.716675C13.7812 0.241592 12.3405 0 10.814 0C9.5596 0 8.40662 0.160858 7.3848 0.481308C6.36484 0.801147 5.44196 1.24208 4.63971 1.79109C3.83932 2.33821 3.14035 2.98288 2.56573 3.70825C1.99359 4.42863 1.508 5.19875 1.12576 5.99368C0.7435 6.78862 0.455872 7.60901 0.274658 8.43188C0.092804 9.25227 0 10.041 0 10.7726C0 12.0153 0.202881 13.2897 0.603699 14.5572C1.0033 15.8273 1.64099 16.9998 2.49829 18.0432C3.35559 19.0865 4.46835 19.9491 5.80753 20.6062C7.14606 21.2657 8.77652 21.5986 10.6495 21.5986C12.2861 21.5986 13.8003 21.2974 15.1475 20.7037C16.4947 20.1106 17.6582 19.2939 18.6064 18.2785C19.5521 17.2631 20.2956 16.0583 20.8152 14.6976C21.3348 13.3363 21.5964 11.8687 21.5964 10.3335C21.5964 8.79892 21.3199 7.29352 20.7732 6.0235L20.775 6.02534L20.775 6.02534ZM11.3862 20.4031C10.1683 20.4031 9.02582 20.1572 7.98853 19.6715C6.94998 19.1859 6.02896 18.4841 5.2496 17.5848C4.47021 16.6862 3.85168 15.5813 3.41254 14.3032C2.97336 13.0245 2.74945 11.5787 2.74945 10.0075C2.74945 8.52753 2.94989 7.21715 3.34512 6.11044C3.73788 5.00562 4.29086 4.06659 4.98981 3.32196C5.68692 2.57796 6.52502 2.01404 7.47946 1.64702C8.4382 1.27811 9.49652 1.0918 10.6241 1.0918C11.68 1.0918 12.7123 1.30978 13.6964 1.74017C14.6805 2.17117 15.5588 2.81332 16.311 3.64864C17.0625 4.48393 17.6774 5.53784 18.1332 6.78241C18.5916 8.02698 18.8242 9.4796 18.8242 11.1036C18.8242 13.0692 18.547 14.6827 18.0002 15.8974C17.4535 17.1122 16.7817 18.0643 16.0048 18.7282C15.2273 19.3914 14.4084 19.8411 13.5696 20.0659C12.7271 20.2907 11.9923 20.405 11.3843 20.405L11.3862 20.4031L11.3862 20.4031Z" fill="#000000" fill-rule="evenodd" transform="translate(445.404 210.933)" />
  </g>
</svg>